<?xml version="1.0" encoding="utf-8"?>
<!-- Generator: Adobe Illustrator 27.2.0, SVG Export Plug-In . SVG Version: 6.00 Build 0)  -->
<svg version="1.1" id="Layer_1" xmlns:serif="http://www.serif.com/"
	 xmlns="http://www.w3.org/2000/svg" xmlns:xlink="http://www.w3.org/1999/xlink" x="0px" y="0px" viewBox="0 0 4000 3000"
	 style="enable-background:new 0 0 4000 3000;" xml:space="preserve">
<style type="text/css">
	.st0{fill:none;}
	.st1{fill-rule:evenodd;clip-rule:evenodd;fill:#FFFFFF;}
	.st2{fill-rule:evenodd;clip-rule:evenodd;fill:#E8F4D8;}
	.st3{fill-rule:evenodd;clip-rule:evenodd;fill:#D0DFB9;}
	.st4{fill-rule:evenodd;clip-rule:evenodd;fill:#A1B584;}
	.st5{fill-rule:evenodd;clip-rule:evenodd;fill:#8091B4;}
	.st6{fill-rule:evenodd;clip-rule:evenodd;fill:#B7CC93;}
	.st7{fill-rule:evenodd;clip-rule:evenodd;fill:#367339;}
	.st8{fill-rule:evenodd;clip-rule:evenodd;fill:#4D7336;}
	.st9{fill-rule:evenodd;clip-rule:evenodd;fill:#90B44D;}
	.st10{fill-rule:evenodd;clip-rule:evenodd;fill:#3D6C3D;}
	.st11{fill-rule:evenodd;clip-rule:evenodd;fill:#397338;}
	.st12{fill-rule:evenodd;clip-rule:evenodd;fill:#7D9C49;}
	.st13{fill-rule:evenodd;clip-rule:evenodd;fill:#6B1E1E;}
	.st14{fill-rule:evenodd;clip-rule:evenodd;fill:#AF3331;}
	.st15{fill-rule:evenodd;clip-rule:evenodd;fill:#C8483C;}
	.st16{fill-rule:evenodd;clip-rule:evenodd;fill:#FD6B4E;}
	.st17{fill-rule:evenodd;clip-rule:evenodd;fill:#8B2E25;}
	.st18{fill-rule:evenodd;clip-rule:evenodd;fill:#3D6C43;}
	.st19{fill-rule:evenodd;clip-rule:evenodd;fill:#244C32;}
	.st20{fill-rule:evenodd;clip-rule:evenodd;fill:#60944E;}
	.st21{fill-rule:evenodd;clip-rule:evenodd;fill:#6EA352;}
	.st22{fill-rule:evenodd;clip-rule:evenodd;fill:#426C37;}
	.st23{fill-rule:evenodd;clip-rule:evenodd;fill:#8FC75B;}
	.st24{fill-rule:evenodd;clip-rule:evenodd;fill:#BBF176;}
	.st25{fill-rule:evenodd;clip-rule:evenodd;fill:#D7FAC5;}
	.st26{fill-rule:evenodd;clip-rule:evenodd;fill:#2D582F;}
	.st27{fill-rule:evenodd;clip-rule:evenodd;fill:#578240;}
	.st28{fill-rule:evenodd;clip-rule:evenodd;fill:#7AA64E;}
	.st29{fill-rule:evenodd;clip-rule:evenodd;fill:#2E5733;}
	.st30{fill-rule:evenodd;clip-rule:evenodd;fill:#1B3B1D;}
	.st31{fill-rule:evenodd;clip-rule:evenodd;fill:#293E1E;}
	.st32{fill-rule:evenodd;clip-rule:evenodd;fill:#1D4323;}
	.st33{fill-rule:evenodd;clip-rule:evenodd;fill:#FDB043;}
	.st34{fill-rule:evenodd;clip-rule:evenodd;fill:#FFE0AD;}
	.st35{fill-rule:evenodd;clip-rule:evenodd;fill:#FFCD7C;}
	.st36{fill-rule:evenodd;clip-rule:evenodd;fill:#D88622;}
	.st37{fill-rule:evenodd;clip-rule:evenodd;fill:#FDC565;}
	.st38{fill-rule:evenodd;clip-rule:evenodd;fill:#B76501;}
	.st39{fill-rule:evenodd;clip-rule:evenodd;fill:#8E4F01;}
	.st40{fill-rule:evenodd;clip-rule:evenodd;fill:#DB8216;}
	.st41{fill-rule:evenodd;clip-rule:evenodd;fill:#61824B;}
	.st42{fill-rule:evenodd;clip-rule:evenodd;fill:#7DA257;}
	.st43{fill-rule:evenodd;clip-rule:evenodd;fill:#ACC374;}
	.st44{fill-rule:evenodd;clip-rule:evenodd;fill:#3A5733;}
	.st45{fill-rule:evenodd;clip-rule:evenodd;fill:#314E3C;}
	.st46{fill-rule:evenodd;clip-rule:evenodd;fill:#AFD069;}
	.st47{fill-rule:evenodd;clip-rule:evenodd;fill:#47643B;}
	.st48{fill-rule:evenodd;clip-rule:evenodd;fill:#285743;}
	.st49{fill-rule:evenodd;clip-rule:evenodd;fill:#143D2E;}
	.st50{fill-rule:evenodd;clip-rule:evenodd;fill:#1A372A;}
	.st51{fill-rule:evenodd;clip-rule:evenodd;fill:#2E7D57;}
	.st52{fill-rule:evenodd;clip-rule:evenodd;fill:#A4364F;}
	.st53{fill-rule:evenodd;clip-rule:evenodd;fill:#731939;}
	.st54{fill-rule:evenodd;clip-rule:evenodd;fill:#DF4A6C;}
	.st55{fill-rule:evenodd;clip-rule:evenodd;fill:#5D0E2A;}
	.st56{fill-rule:evenodd;clip-rule:evenodd;fill:#618835;}
	.st57{fill-rule:evenodd;clip-rule:evenodd;fill:#2B5437;}
	.st58{fill-rule:evenodd;clip-rule:evenodd;fill:#0A3D14;}
	.st59{fill-rule:evenodd;clip-rule:evenodd;fill:#C75C1A;}
	.st60{fill-rule:evenodd;clip-rule:evenodd;fill:#853A05;}
	.st61{fill-rule:evenodd;clip-rule:evenodd;fill:#EC7526;}
	.st62{fill-rule:evenodd;clip-rule:evenodd;fill:#FFAB35;}
	.st63{fill-rule:evenodd;clip-rule:evenodd;fill:#793304;}
	.st64{fill-rule:evenodd;clip-rule:evenodd;fill:#BF5518;}
	.st65{fill-rule:evenodd;clip-rule:evenodd;fill:#873912;}
	.st66{fill-rule:evenodd;clip-rule:evenodd;fill:#FF9335;}
	.st67{fill-rule:evenodd;clip-rule:evenodd;fill:#FE8625;}
	.st68{fill-rule:evenodd;clip-rule:evenodd;fill:#BF5712;}
	.st69{fill-rule:evenodd;clip-rule:evenodd;fill:#FFAB52;}
	.st70{fill-rule:evenodd;clip-rule:evenodd;fill:#723213;}
	.st71{fill-rule:evenodd;clip-rule:evenodd;fill:#649343;}
	.st72{fill-rule:evenodd;clip-rule:evenodd;fill:#395E31;}
	.st73{fill-rule:evenodd;clip-rule:evenodd;fill:#96BE56;}
	.st74{fill-rule:evenodd;clip-rule:evenodd;fill:#8DBF6B;}
	.st75{fill-rule:evenodd;clip-rule:evenodd;fill:#537D36;}
	.st76{fill-rule:evenodd;clip-rule:evenodd;fill:#365B29;}
	.st77{fill-rule:evenodd;clip-rule:evenodd;fill:#254627;}
	.st78{fill-rule:evenodd;clip-rule:evenodd;fill:#5E49A7;}
	.st79{fill-rule:evenodd;clip-rule:evenodd;fill:#483C8B;}
	.st80{fill-rule:evenodd;clip-rule:evenodd;fill:#7C67D0;}
	.st81{fill-rule:evenodd;clip-rule:evenodd;fill:#3D7F5A;}
	.st82{fill-rule:evenodd;clip-rule:evenodd;fill:#5EAF7A;}
	.st83{fill-rule:evenodd;clip-rule:evenodd;fill:#265941;}
	.st84{fill-rule:evenodd;clip-rule:evenodd;fill:#912F33;}
	.st85{fill-rule:evenodd;clip-rule:evenodd;fill:#612327;}
	.st86{fill-rule:evenodd;clip-rule:evenodd;fill:#445B33;}
	.st87{fill-rule:evenodd;clip-rule:evenodd;fill:#2B3B21;}
	.st88{fill-rule:evenodd;clip-rule:evenodd;fill:#B8403E;}
	.st89{fill-rule:evenodd;clip-rule:evenodd;fill:#D0403E;}
	.st90{fill-rule:evenodd;clip-rule:evenodd;fill:#98282D;}
	.st91{fill-rule:evenodd;clip-rule:evenodd;fill:#678248;}
	.st92{fill-rule:evenodd;clip-rule:evenodd;fill:#F87B6A;}
	.st93{fill-rule:evenodd;clip-rule:evenodd;fill:#7890C4;}
	.st94{fill-rule:evenodd;clip-rule:evenodd;fill:#5A6F9C;}
	.st95{fill-rule:evenodd;clip-rule:evenodd;fill:#E7ECFD;}
	.st96{fill-rule:evenodd;clip-rule:evenodd;fill:#BBCCEC;}
	.st97{fill-rule:evenodd;clip-rule:evenodd;fill:#F5F7FF;}
	.st98{fill-rule:evenodd;clip-rule:evenodd;fill:#798CBD;}
	.st99{fill-rule:evenodd;clip-rule:evenodd;fill:#F0F3FF;}
	.st100{fill-rule:evenodd;clip-rule:evenodd;fill:#B7D6A1;}
	.st101{fill-rule:evenodd;clip-rule:evenodd;fill:#699264;}
	.st102{fill-rule:evenodd;clip-rule:evenodd;fill:#658D49;}
	.st103{fill-rule:evenodd;clip-rule:evenodd;fill:#9EBE69;}
	.st104{fill-rule:evenodd;clip-rule:evenodd;fill:#405C3D;}
	.st105{fill-rule:evenodd;clip-rule:evenodd;fill:#2C5223;}
</style>
<rect id="Veg-2" serif:id="Veg 2" class="st0" width="4000" height="3000">
</rect>
<rect class="st1" width="4000" height="3000"/>
<path class="st2" d="M3144.1,2612.5c174.9-241.2,269.1-531.6,269.1-829.6c0-780-633.3-1413.2-1413.2-1413.2
	c-780,0-1413.2,633.3-1413.2,1413.2c0,298,94.2,588.4,269.1,829.6H3144.1L3144.1,2612.5z"/>
<path class="st3" d="M610.1,1525.9c67.6-16.7,145-18,178.7,14.7c94.4,91.5,11.4,299.7,155.5,354.6c94.9,36.2,223.5,27.7,318.3-4.7
	c96.9-33,198.5-129.4,303-56.8c108.2,75.2,69.7,395.4,263.8,510.8c174.8,103.9,388.6-26.9,563.7,55.2
	c89.3,41.9,103.1,133.4,132.8,212.8h-181.8c-27.9-35.1-63.5-65.2-117.8-81.7c-104-31.6-247.7,40.6-366.8,81.7h-186.9
	c-136.9-139.5-13.9-550.2-253-577.2c-43.2-4.9-96,4.3-132.7,28.6c-150,99.3,138.3,225.6,49.3,353.1c-15.4,22.1-38.6,31.9-65.2,29.9
	c-167.1-12.2-147.4-256.2-266.8-331.6c-122.5-77.3-256,2.1-373.8,15.4c-23.5-92.7-37.7-188-42-284.4c75.3-12.2,129-29.9,58.8-107.7
	c-16-17.7-35.8-30.2-57.8-38.5C592.6,1641,599.6,1582.8,610.1,1525.9L610.1,1525.9z M3292.2,2355.1c-27.2,1-54.3,0.3-80.6-2
	c-80.4-7.2-178.4-23-242.4-77.3c-148.7-126.2-171.1-476.8-432.3-449c-30.5,3.2-63.5,18.2-77.2,47.4
	c-74.2,158.2,258.4,191.8,226.1,375.2c-5,28.2-22,59.4-49.7,70.8c-178.3,73.4-313.6-359.1-392.7-449
	c-105.9-120.6-345.7-21.2-412.7-152.2c-77.9-152,46.5-370-120.6-487c-194.3-136-329.1,46.5-497.4,96.6
	c-128.4,38.3-374.7,47.5-548-9.3c32.8-94.4,75.4-184.3,126.5-268.4c106.2,18.5,195.1,27.3,191.2-56.8
	c-2.2-46.8-22.6-97.9-49.2-137.6c67.9-78.1,144.3-148.7,227.6-210.4c9.8,98.3,29.1,202.2,102.7,274.7
	c199.3,196.4,473.8,28.9,631.7,167.7c162,142.4,53.3,448.6,264.1,548.7c183.1,87,441.3-54.4,610.1,32.1
	c159.4,81.7,82,384.8,302.7,432c101.4,21.7,205.2,15.8,306.1-5.1C3357.9,2185.1,3329.1,2271.8,3292.2,2355.1L3292.2,2355.1z
	 M3411.1,1704.1c-88.3,19.4-215.9-1.4-267.5-18.9c-68.9-23.5-138.2-64.1-189.8-115.7c-92.9-92.9-91.3-216.7-127-333.9
	c-29.5-96.8-179.9-312-268.8-357.5c-234.6-120-641.4,102.1-820.6-25.9c-137.7-98.3-93.3-288.2-163.7-417
	c76.6-24.2,156-42.1,237.6-53.1c-3.6,135.1,15.8,249.3,189.2,314.8c281.4,106.3,455.9-141.5,659-73.8
	c160,53.3,54.2,297.8,305.2,350.7c65.9,13.9,138.1,21.2,205.4,16.4c59,86.9,108.6,180.6,147.2,279.8
	c-123.2-57.4-382.5-249.5-415.9-106.6c-6.3,27,6.9,55.1,20.5,77.6c93.3,154.2,287.8,61,426,115.7
	C3382.7,1467.3,3404.5,1583.7,3411.1,1704.1L3411.1,1704.1z"/>
<path class="st4" d="M3276.3,2625.4c0,8.3-6.7,15-15,15H738.7c-8.3,0-15-6.7-15-15c0-8.3,6.7-15,15-15h2522.6
	C3269.6,2610.4,3276.3,2617.1,3276.3,2625.4z"/>
<ellipse class="st5" cx="2031.9" cy="1696" rx="1017.3" ry="67"/>
<path class="st6" d="M1944.2,1195c0,0,44.6,205.6,60.6,232c13.8,12.7,37.2,2.9,38.1-9.1c-3-42.1-74.6-228.7-74.6-228.7L1944.2,1195z
	"/>
<path class="st7" d="M1804.1,747.3c-21.1,46.2,5.4,82.9,20,116.1c14.8,33.7-0.4,69.1,10.1,103.2c7.2,23.5,35.6,40.7,41.8,64.4
	c7,26.9,8.8,52.7,18.9,79c7.3,19.1,31.8,25.9,35.4,51.2c2.7,18.9-0.7,30.9,24.4,49.2c11-0.2,9.1-11.7,11-20
	c8.7-38.2-15.5-65.9-38-92.8c-22.3-26.6-31.4-70.1-31.8-117.1c-0.6-65.5-41.8-58.4-47.8-123C1844.7,822,1820,818.8,1804.1,747.3
	L1804.1,747.3z"/>
<path class="st8" d="M1856.6,723.8c37.5-7.4,66.3,86.1,58.3,121.4c-8.1,35.9,26.7,59.3,32.8,94.5c4.2,24.2-13.3,52.5-8.1,76.3
	c5.9,27.1,25.1,48.9,28,76.8c2.1,20.4-7.2,40-4.2,60.4c2.8,18.8,11.3,26.4,7.8,49.3c-1.4,9.8-13.3,10.6-18.7,4.1
	c-25-30.1-26.2-69.2-24.9-104.2c1.8-50.7-16.9-80.6-32.8-124.9c-18.7-52.3-9.9-101.9-3.5-154.6
	C1894.8,794,1874.7,755.5,1856.6,723.8L1856.6,723.8z"/>
<path class="st9" d="M1827.9,693.1c-35,19.5,4.1,90.8,19.2,127.3c15.4,37.2,1.9,72.7,12.6,110.2c7.4,25.8,36.8,49,43,74.9
	c7.1,29.5-1.5,60,8.9,88.9c7.6,21.1,26,36,32.8,57.6c6.2,19.9-7.9,33.8,6.5,54.7c6,9,18.1,4.2,20.4-4.9
	c10.3-41.6-3.4-82.6-21.2-116.5c-25.8-49-15.9-87.8-21.4-139c-6.4-60.3-43.4-98.7-60.1-154.3
	C1859.3,761.5,1845.9,683.1,1827.9,693.1z"/>
<path class="st6" d="M2051.7,1240c0,0,7.3,210.3,18.3,239.1c11.3,14.9,36.1,9.5,39.1-2.2c4.5-42-32.7-238.3-32.7-238.3L2051.7,1240
	L2051.7,1240z"/>
<path class="st10" d="M1993.6,774.6c-29,41.7-9.4,82.6-1,117.8c8.6,35.8-12.7,67.9-8.5,103.4c2.9,24.4,27.8,46.4,29.7,70.8
	c2.1,27.7-0.7,53.5,4.5,81.1c3.8,20.1,26.7,31.1,25.8,56.7c-0.7,19-6.2,30.3,15.2,52.8c10.8,1.8,11.1-9.8,14.4-17.7
	c15.3-36.1-3.5-67.6-20.9-98.1c-17.2-30.2-18.4-74.5-10.5-120.9c11.1-64.5-30.8-64.9-25.2-129.5
	C2020.3,855.3,1996.5,847.8,1993.6,774.6L1993.6,774.6z"/>
<path class="st11" d="M2049.5,760.8c38.2-0.6,49.9,96.5,35.8,129.8c-14.4,33.9,15.7,63.1,15.4,98.9c-0.2,24.6-22.4,49.2-21.6,73.7
	c1,27.7,16,52.5,13.9,80.6c-1.5,20.4-14.2,38.1-14.9,58.7c-0.6,19,6.4,28-1.2,49.9c-3.1,9.4-14.9,8.1-19.1,0.7
	c-19.2-34.1-13.5-72.8-6-107c10.8-49.5-2.3-82.3-10-128.8c-9.1-54.7,8.4-102,24.1-152.8C2074.5,836.7,2061.6,795.2,2049.5,760.8z"/>
<path class="st12" d="M2026.6,725.5c-37.9,13-12.2,90-3.7,128.7c8.6,39.3-11.1,71.9-7.3,110.7c2.6,26.7,27.5,54.7,28.9,81.4
	c1.7,30.3-12.2,58.8-7.1,89.1c3.7,22.1,19.2,40.1,22,62.5c2.6,20.7-13.8,31.8-3.4,54.9c4.3,9.9,17.1,7.3,20.9-1.2
	c17.6-39.1,11.4-81.9-0.1-118.4c-16.7-52.9,0-89.3,3.7-140.5c4.4-60.5-25.1-104.9-31.7-162.6
	C2045.4,798.4,2046.2,718.8,2026.6,725.5L2026.6,725.5z"/>
<g>
	<path class="st13" d="M2005.4,1174.5c0,0,11.8-16.2,10.8-35.2c-1-19-13.1-32.7-13.1-32.7s15.7-6.1,27.6-3.7c0,0-1.1,26.8,1,35.9
		c3.4,14.5,10.5,27.9,18.2,32.4L2005.4,1174.5z"/>
	<path class="st14" d="M1972,1185.8l54.6,188.7c0,0-16.8,5.3-35.4,2.5c-26.2-3.9-52.4-10.7-79.6-69.5c-12.3-26.6-15-85.7,10.8-108.4
		C1946.9,1177.8,1972,1185.8,1972,1185.8L1972,1185.8z M2090.3,1167.2c0,0,10.9-11.7,31.4-8.3c31.8,5.3,52.7,22.9,54.5,50.3
		c1.6,23.9,9.7,102.1-8.2,130.1c-17,26.7-59.2,20.2-59.2,20.2L2090.3,1167.2L2090.3,1167.2z"/>
	<path class="st13" d="M1965.2,1184.6c4.3,0.4,6.8,1.2,6.8,1.2l54.6,188.7c0,0-16.8,5.3-35.4,2.5c-26.2-3.9-52.4-10.7-79.6-69.5
		c-4.9-10.7-8.3-26.7-8.9-43.4c0,0,19,55.1,56,62.2C1964,1293,1937.4,1233.9,1965.2,1184.6L1965.2,1184.6z M2176.9,1311.6
		c-1.7,11.2-4.5,20.9-8.9,27.7c-17,26.7-59.2,20.2-59.2,20.2l-18.5-192.2c0,0,3.1-3.3,9.1-5.9c0,0,19.5,24.8,29,70.4
		C2133.4,1255,2152,1293.8,2176.9,1311.6z"/>
	<path class="st15" d="M2096.6,1173.9c-28.1-37.8-116.4-25.1-128,21c-14.9,59.4,22.8,151.4,44.4,171.9
		c21.6,19.5,83.1,15.2,100.4-13.4C2129,1327.6,2124.5,1211.6,2096.6,1173.9z"/>
	<path class="st16" d="M2078,1191.7c-1.9-10.9-17.9-16.1-18.7-16.2c-5.6-1.2-11.4-1-17.1-0.9c-12.4,0.3-29.6,2.6-34.7,19
		c-1.4,4.4,1.3,40.1,34.4,35.6C2057.8,1227,2082.4,1217,2078,1191.7L2078,1191.7z"/>
	<path class="st17" d="M1965.2,1222.1c0,0,10.7,43.1,37.9,54.9c27.2,11.9,107.8-43.4,111.8-54.9c10.4,49,9.5,113-1.6,131.2
		c-17.3,28.6-78.9,32.9-100.4,13.4C1994.5,1349.3,1964.2,1279.2,1965.2,1222.1z"/>
</g>
<g>
	<path class="st18" d="M3039.9,1119c1.3,0.6,3.7-16.6,3.7-17.5c0-9.3-1.5-20.7-7.9-27.9c-8.8-9.9-23.9-9.3-34.8-15.8
		c-12.8-7.6-18.5-22.2-32.4-29c-16.5-8-44.1-10.7-59.8,0.3c-16.2,11.3-21.8,26.5-43.5,29.6c-27.8,4-57.9-11.1-83.8,4.8
		c-53.4,32.8-30.6,70.8-51.6,117.6c-14.3,32.1-44.2,50.9-57.2,83.4c-11.9,29.7,0.3,51.4,0,80.8c-0.2,18.6-8,36.2-10.2,54.6
		c-5.1,42.7-41.7,127.4-21.3,164.4C2843.6,1549.1,2921.1,1298.2,3039.9,1119L3039.9,1119z"/>
	<path class="st19" d="M2672.6,1343.3c2.2-1.9,4.4-3.7,6.6-5.4c15.4-12.1,37.4-18.2,49.6-33.8c15.1-19.4,23-49.4,25.8-73.3
		c1.8-14.9,0.8-31,7.8-44.7c16.7-32.6,52.5-18.2,78.4-34.3c19.9-12.3,29.5-40.7,48.9-48.9c16.1-6.8,35.5-4.8,52.5-4.1
		c18.9,0.7,38.4,0.7,57.1,3.7c15,2.4,28.8,5.4,43.2,6.9c-0.8,4.8-1.8,10-2.6,9.6c-118.8,179.2-196.3,430.1-398.9,445.2
		c-20.5-37.1,16.1-121.7,21.3-164.4c2.2-18.4,10-36,10.2-54.6C2672.6,1344.6,2672.6,1343.9,2672.6,1343.3L2672.6,1343.3z"/>
	<path class="st20" d="M2738.8,1149.7c5.4-32.9,1.6-61,42.5-86.2c25.9-15.9,56-0.8,83.8-4.8c21.7-3.1,27.3-18.3,43.5-29.6
		c15.7-10.9,43.4-8.3,59.8-0.3c13.9,6.8,19.6,21.4,32.4,29c10.9,6.5,26,5.9,34.8,15.8c3,3.3,4.9,7.6,6.1,12.1c-0.1,0-0.1,0-0.2,0
		c-17.8-0.3-39.8,3.6-56.2-4.9c-12.5-6.4-18.4-19.9-29.7-27.5c-11-7.4-25.2-5.8-37.7-3.7c-26.7,4.4-42.6,29-68.2,35.4
		c-22.7,5.7-48.4-9.2-68.9,6.3c-17.4,13.3-24,29.4-34,48C2745.4,1142.1,2742.4,1146.3,2738.8,1149.7L2738.8,1149.7z"/>
	<path class="st21" d="M3181.3,1201.3c-31.4-11.4-17.4-76-64-92c-30.6-10.5-77.6,14.7-97.8,12.4c-38.2-4.3-62.2-24.9-102.2-12.4
		c-28.3,8.9-35.5,35.5-56.9,51c-27,19.6-70.6,12.6-84.6,49.6c-11.2,29.3-1.6,68.8-12.4,98c-13.9,37.5-52.8,40.2-69.2,77.9
		c-17.9,41,2.9,84.5-9,126.2c-7.9,27.8-41.2,40.6-54,66.8c-21.9,44.9,9,60.3,3.2,98.4c-2.8,18.5-45.5,53.9-30.5,88.4
		c16.4,37.6,48.3,28,59.5,40.2c18.6,20.1,60.9,45.3,110.3,36.2c77.2-14.2,69.1-81.9,95.8-101.8c27.8-20.7,48-20.6,82.1-45.4
		c22.5-16.4,32.5-47.6,48-69c13.1-18.1,55.7-12.1,76.5-36c20.2-23.3,15.9-75.2,34.3-99.3c30.1-39.5,69.1-19.6,93.5-74.2
		c14.9-33.4-6.5-54.1,0-88C3210.4,1293.1,3262.5,1231,3181.3,1201.3L3181.3,1201.3z"/>
	<path class="st22" d="M2727,1348.8c9.3,32.9,2.6,65.5,12.8,97.9c3.7,11.7,11,18.2,19.3,26.6c18.1,18.5,20.5,40.3,20.5,65.3
		c0,50.2,31.8,146.1,173.6,62.6c29.3-17.3,67-2.7,83.2-39.9c14.4-33-13.7-88.5,14.2-109.8c24.5-18.7,58-6.2,84.6-18.5
		c26.9-12.4,24.8-49,55.4-60.4c5.6-2.1,10.8-3.4,15.6-3.9c3.1,14.9,5.8,29.4-2.4,47.6c-24.4,54.6-63.4,34.7-93.5,74.2
		c-18.4,24.2-14.1,76-34.3,99.3c-20.7,23.9-63.3,17.9-76.5,36c-15.5,21.4-25.4,52.6-48,69c-34.1,24.8-54.3,24.7-82.1,45.4
		c-26.7,19.8-18.6,87.6-95.8,101.8c-49.4,9.1-91.7-16.1-110.3-36.2c-11.2-12.2-43.1-2.6-59.5-40.2c-15-34.4,27.7-69.9,30.5-88.4
		c5.8-38.1-25.1-53.5-3.2-98.4c12.8-26.3,46.1-39,54-66.8c11.9-41.7-8.8-85.2,9-126.2C2701.8,1368.2,2714.4,1358.3,2727,1348.8z"/>
	<path class="st23" d="M2768.4,1283.6c2.2-24.6-0.9-51.9,7.4-73.7c14.1-36.9,57.6-30,84.6-49.6c21.4-15.6,28.6-42.2,56.9-51
		c40-12.5,64,8,102.2,12.4c20.2,2.3,67.2-22.9,97.8-12.4c46.6,16,32.6,80.6,64,92c77.9,28.4,33.1,86.8,23.4,122.7
		c-22.3,0-47.7-6.6-72,1c-30.7,9.5-40.4,42.6-65.5,59.1c-27.7,18.2-62,18.8-91.5,32.8c-54.1,25.7-25,104.7-84,134.3
		c-6.4,3.2-13.6,5.7-20.8,6.4c-61,6-37.6-61-50.9-96.1c-13.6-36.1-56-45-39.7-87.7C2796.4,1331.5,2782.1,1305.8,2768.4,1283.6
		L2768.4,1283.6z"/>
	<path class="st24" d="M2771,1230.2c0.9-7.1,2.3-13.9,4.8-20.3c14.1-36.9,57.6-30,84.6-49.6c21.4-15.6,28.6-42.2,56.9-51
		c40-12.5,64,8,102.2,12.4c20.2,2.3,67.2-22.9,97.8-12.4c46.6,16,32.6,80.6,64,92c39.3,14.3,47.4,36.3,44.5,59.1
		c-3.9-6.8-8.8-13-14.9-17.5c-18.4-13.6-43.6-5.7-57.3-27.8c-12-19.3-11.6-53.4-33.4-65.1c-23.3-12.5-52.3,16.7-76.8,16.5
		c-32.6-0.3-52.9-27.1-83.8-31.3c-21.3-2.9-44.9,12.9-57,29.7c-8.2,11.5-12.5,25.6-26.4,31.7c-28.8,12.6-59.7-0.2-86.7,19.5
		C2783.4,1220.5,2777,1225.1,2771,1230.2z"/>
	<path class="st25" d="M2666,1808.7c19-26.6,44.3-62,73.7-103.6c0,0,0.1-0.1,0.1-0.1c12.5-17.7,25.8-36.4,39.6-56.1
		c-8.3-6.2-28.7-22.9-46.9-50.7c-0.1-0.1-0.2-0.2-0.2-0.4c-14.8-22.7-28.1-52.8-32.2-90.5c-0.3-2.5,1.5-4.7,4-5s4.7,1.5,5,4
		c3,27.8,11.3,51.2,21.4,70.5c-0.7-20.9,0.1-55.1,10.4-84c0.8-2.3,3.4-3.6,5.8-2.7c2.3,0.8,3.6,3.4,2.7,5.8
		c-14.2,39.8-9.6,90.3-8.8,98.1c17.2,26.1,36.3,41.8,44,47.5c12.1-17.2,24.7-35.2,37.6-53.6c0,0,0.1-0.1,0.1-0.1
		c12.3-17.5,24.9-35.5,37.7-53.9c-9.9-17.9-67.6-128.1-49.2-215.2c0.5-2.4,2.9-4,5.3-3.5c2.4,0.5,4,2.9,3.5,5.3
		c-16.9,79.8,32.4,179.4,46.1,205.1c35.8-51.5,73.3-105.7,110.4-160.2c-8.7-14.5-15-35.8-19.4-58.9c-0.3-1.4-0.5-2.8-0.8-4.3
		c-11.3-5.6-62.5-33.7-70.3-83.3c-0.4-2.5,1.3-4.8,3.7-5.1c2.5-0.4,4.8,1.3,5.1,3.7c6.3,39.9,43.2,64.6,59.5,73.6
		c-8.1-52.2-8.2-107.3-8.2-107.3c0-2.5,2-4.5,4.5-4.5c2.5,0,4.5,2,4.5,4.5c0,0,0.1,65.7,10.6,121c3.8,20.1,9,38.8,16.2,52.4
		c26.4-38.8,52.7-77.6,78-115.6c1.4-2.1,4.2-2.6,6.2-1.2c2.1,1.4,2.6,4.2,1.2,6.2c-26.7,39.9-54.3,80.8-82,121.5
		c0,0-0.1,0.1-0.1,0.1c-19.6,28.7-39.3,57.4-58.8,85.7c16.9-0.5,56.5-2.6,98.5-11.4c6.5-5.7,48.9-44.3,72.3-97.9
		c1-2.3,3.6-3.3,5.9-2.3s3.3,3.6,2.3,5.9c-18,41.3-46.9,74-63.3,90.4c34.1-8.6,68.1-22,91-43.1c1.8-1.7,4.7-1.6,6.4,0.3
		c1.7,1.8,1.6,4.7-0.3,6.4c-26.7,24.5-67.6,39.3-107.2,48.1c-1.4,0.3-2.7,0.6-4.1,0.9c0,0-0.1,0-0.1,0
		c-50,10.6-96.9,11.8-107.8,11.9c-17.3,25-34.4,49.6-51.1,73.7c0,0-0.1,0.1-0.1,0.1c-11.9,17.1-23.7,34-35.2,50.4
		c14.8,2.2,51.2,6.4,91.2,1.9c34.3-3.9,71.3-14.1,99.1-37.9c1.9-1.6,4.7-1.4,6.3,0.5s1.4,4.7-0.5,6.3c-29.2,25-67.9,36-104,40
		c-45.7,5.2-86.9-0.8-98-2.6c-13.3,18.9-26.2,37.3-38.6,55c0,0,0,0-0.1,0.1c-13.4,19-26.2,37.1-38.3,54.2
		c24.1,4.5,110.1,15.8,179.5-37.6c2-1.5,4.8-1.1,6.3,0.8c1.5,2,1.1,4.8-0.8,6.3c-76.5,58.9-172.5,42.4-190.7,38.5
		c-29,40.9-53.9,75.8-72.6,102C2670.3,1812.8,2668,1810.7,2666,1808.7L2666,1808.7z"/>
</g>
<g>
	<path class="st26" d="M2663.2,916.8c-2.9,5.3-9.6,7.3-14.9,4.3c-5.3-2.9-7.3-9.6-4.3-14.9c0,0,9.7-18.5,4.4-46.2
		c-1.1-6,2.8-11.7,8.7-12.9c6-1.1,11.7,2.8,12.9,8.7C2677,892.5,2663.2,916.8,2663.2,916.8z"/>
	<path class="st27" d="M2644.2,907.8c52.7,1.2,91.3,60.9,86.3,123.7c-5,62.8-13,293-135.5,391.5c-81.5,65.5-184.6,56.1-230.2,4.5
		s-44.1-159.9,72.6-224.7c101.6-56.5,104.6-166.8,115.5-211.2C2563.8,947.2,2594.8,906.7,2644.2,907.8z"/>
	<path class="st28" d="M2595.6,953.4c5.7-10.8,30.4-8.7,35.8-7.3c11.4,3,15.1,15.9,17.3,26.2c4.8,21.9-2.2,40.5-9,60.9
		c-10.8,32.3-20.7,65-32.2,97.1c-6.7,18.7-16.7,40.2-39.9,36.8c-21.4-3.1-18.9-31.9-16.5-48.2c3.3-22.8,21.9-39.3,26.7-62
		c4.2-20.1,0.1-40.8,2.6-61C2582.1,982.4,2580.7,981.7,2595.6,953.4L2595.6,953.4z"/>
	<path class="st29" d="M2726.6,1082.1c-8.1,93.4-32,260.8-131.7,340.9c-81.5,65.5-184.6,56.1-230.2,4.5s-44.1-159.9,72.6-224.7
		c0.1-0.1,0.2-0.1,0.3-0.2c13.3,4,25.9,10.7,34.9,19.7c9.1,9.1,14.6,21,25.9,27.9c17.5,10.7,39.7,9.6,57.1,20.8
		c25.2,16.3,39.8,50.6,77.8,25.4c32.5-21.5,32.6-73.4,45-106.5c7.4-19.8,20.5-35.4,29.6-54.1c5.7-11.8,9.4-24.2,13.1-36.8
		C2722.7,1093.3,2724.6,1087.7,2726.6,1082.1L2726.6,1082.1z"/>
	<path class="st26" d="M2346.5,1398.1c-5.9-46.3,16.3-122.7,80.6-165.1c14.1-9.3,30.2-15.4,45.7-22.4c15.1-6.8,29.7-14.6,41-27.2
		c43.2-48.3,51.2-124.9,62.9-186.1c3-15.9,3.8-34.6,10.7-49.3c4.3-9.1,22.5-25.8,40.1-38c0.6-0.4,1.2-0.8,1.8-1.3
		c2.8-0.4,5.8-0.7,8.7-0.9c-2.7,1.7-5.5,3.5-8.3,5.4c-17,11.7-34.7,27.7-38.8,36.4c-6.8,14.4-7.5,32.8-10.4,48.4
		c-11.8,61.8-20.1,139.2-63.8,188c-11.7,13.1-26.7,21.1-42.4,28.2c-15.3,6.9-31.2,12.9-45.1,22.1c-66.2,43.7-86.9,124.2-77.7,168.3
		c0.2,0.9-0.3,1.8-1,2.2C2349.1,1404,2347.7,1401.1,2346.5,1398.1L2346.5,1398.1z M2361.1,1423.1c-0.1-0.3-0.1-0.7-0.1-1
		c-0.5-4.9,0.8-13,1-14.4c2.8-17.6,9.4-40.3,17.7-56.2c16.8-31.8,44.6-55.1,74.8-75.8c30-20.5,62.4-38.7,88.7-60.4
		c34.2-28.2,43.4-71.3,50-113.2c10.3-65.4,13.6-138.7,53.7-194.2c1.6,0.1,3.1,0.2,4.6,0.4c-41,55.2-44.1,128.8-54.4,194.3
		c-6.7,42.9-16.5,86.8-51.4,115.7c-26.4,21.8-58.9,40-89,60.6c-29.7,20.4-57.1,43.2-73.6,74.4c-8.1,15.5-14.6,37.7-17.3,54.9
		c-0.2,1.2-1.4,8.8-1,13.3c0.1,0.8,0.4,1.7,0.5,2c0.9,0.3,1.4,1.2,1.3,2.2c-0.1,1-1,1.6-1.9,1.7c0,0,0,0,0,0
		C2363.5,1426,2362.2,1424.6,2361.1,1423.1L2361.1,1423.1z M2370.4,1433.4c0.6-0.6,1.3-1.3,1.9-1.9c5.7-6.1,11.2-14.2,14.4-17.6
		c19.8-21.5,41.4-44,63.6-63.1c19.4-16.7,37.9-34.4,57.5-51c22.7-19.3,45.7-35.6,65-58.6c23.2-27.8,43.9-62.8,53.5-97.7
		c4.9-17.6,5.5-36.1,10.4-53.8c8.1-29.3,17.4-59.2,22.1-89.2c2.6-16.5,1.2-33-0.2-49.5c-1.2-13.9-2.5-27.8-1.6-41.8
		c1.3,0.3,2.6,0.6,3.9,0.9c-0.7,13.5,0.5,27,1.7,40.5c1.5,16.8,2.8,33.6,0.1,50.5c-4.7,30.2-14.1,60.2-22.2,89.7
		c-4.9,17.6-5.5,36.1-10.4,53.8c-9.8,35.5-30.7,71-54.3,99.2c-19.4,23.2-42.6,39.6-65.5,59.1c-19.5,16.6-38,34.3-57.5,51
		c-22.1,19-43.6,41.4-63.2,62.8c-3.2,3.4-8.7,11.5-14.4,17.6c-0.6,0.7-1.3,1.3-1.9,1.9C2372.3,1435.2,2371.4,1434.3,2370.4,1433.4
		L2370.4,1433.4z M2675.8,916c3,1.5,5.8,3.3,8.6,5.2c5.7,9.1,10.1,19.5,12.6,24.5c23.1,45.9,14.5,91.9,11.8,140.4
		c-2,35.7-15.5,69.4-24.5,103.7c-10,38.2-15.2,80.9-32.5,116.6c-25.9,53.5-78.5,110.9-133.7,131.8c-21.2,8-58.8,16-92.1,18.2
		c-6.6,0.4-13.1,0.6-19.2,0.6c-3.1-1.3-6.2-2.8-9.1-4.3c8.6,0.6,18.1,0.4,28.1-0.2c32.8-2.2,70-10,90.9-18
		c54.3-20.6,106-77.2,131.5-129.8c17.2-35.5,22.2-78,32.2-115.9c9-34,22.4-67.4,24.4-102.9c2.6-47.8,11.3-93.2-11.4-138.4
		c-3-6-8.8-19.8-16.1-29.6C2676.8,917.3,2676.3,916.7,2675.8,916L2675.8,916z M2668.9,912.9c1.4,0.6,2.8,1.2,4.2,1.8
		c4.7,42.7,13.4,86.6,12.1,129.3c-1.2,36.5-13,71.8-21.2,107.1c-4.5,19.5-7,39.6-12.5,58.9c-21.4,75.4-67.7,145.8-134.7,188.2
		c-34.8,22-94.3,32.9-135.4,44.5c-1.3-0.9-2.5-1.9-3.7-2.9c0.2-0.2,0.5-0.4,0.8-0.5c40.8-11.7,101.1-22.3,136.1-44.5
		c66.3-41.9,111.9-111.5,133-185.9c5.5-19.2,7.9-39.2,12.5-58.7c8.1-35,19.9-70.1,21.1-106.3
		C2682.6,1000.7,2673.6,956.1,2668.9,912.9L2668.9,912.9z"/>
	<path class="st30" d="M2406.7,1457c-3.1-1.3-6.2-2.8-9.1-4.3c8.6,0.6,18.1,0.4,28.1-0.2c32.8-2.2,70-10,90.9-18
		c54.3-20.6,106-77.2,131.5-129.8c17.2-35.5,22.2-78,32.2-115.9c0.9-3.2,1.7-6.4,2.7-9.7c2.7-5.4,5.7-10.5,8.8-15.6
		c-2.6,8.7-5.2,17.5-7.5,26.2c-10,38.2-15.2,80.9-32.5,116.6c-25.9,53.5-78.5,110.9-133.7,131.8c-21.2,8-58.8,16-92.1,18.2
		C2419.3,1456.9,2412.8,1457.1,2406.7,1457L2406.7,1457z M2381.4,1442.7c-1.3-0.9-2.5-1.9-3.7-2.9c0.2-0.2,0.5-0.4,0.8-0.5
		c40.8-11.7,101.1-22.3,136.1-44.5c36.2-22.9,66.3-54.1,89.5-89.8c1.5,0.2,3,0.3,4.6,0.3c-23.7,37-54.6,69.2-91.9,92.9
		C2481.9,1420.2,2422.4,1431.1,2381.4,1442.7L2381.4,1442.7z M2373.3,1436.1c-1-0.9-2-1.8-2.9-2.7c0.6-0.6,1.3-1.3,1.9-1.9
		c5.7-6.1,11.2-14.2,14.4-17.6c19.8-21.5,41.4-44,63.6-63.1c19.4-16.7,37.9-34.4,57.5-51c13.4-11.4,27-21.7,39.8-33.1
		c1.3,0.6,2.6,1.2,3.9,1.9c-13.2,11.8-27.2,22.5-41.1,34.2c-19.5,16.6-38,34.3-57.5,51c-22.1,19-43.6,41.4-63.2,62.8
		c-3.2,3.4-8.7,11.5-14.4,17.6C2374.6,1434.9,2374,1435.5,2373.3,1436.1L2373.3,1436.1z M2364.8,1427.5L2364.8,1427.5
		c-1.3-1.5-2.5-2.9-3.7-4.5c-0.1-0.3-0.1-0.7-0.1-1c-0.5-4.9,0.8-13,1-14.4c2.8-17.6,9.4-40.3,17.7-56.2
		c16.8-31.8,44.6-55.1,74.8-75.8c13.6-9.3,27.8-18.2,41.6-27.1c0.8,0.5,1.5,1.1,2.4,1.6c0.4,0.3,0.9,0.5,1.4,0.8
		c-14.3,9.2-28.9,18.4-43.1,28c-29.7,20.4-57.1,43.2-73.6,74.4c-8.1,15.5-14.6,37.7-17.3,54.9c-0.2,1.2-1.4,8.8-1,13.3
		c0.1,0.8,0.4,1.7,0.5,2c0.9,0.3,1.4,1.2,1.3,2.2C2366.5,1426.8,2365.7,1427.5,2364.8,1427.5L2364.8,1427.5z M2350.6,1406.8
		c-1.5-2.8-2.8-5.7-4.1-8.7c-5.9-46.3,16.3-122.7,80.6-165.1c11.2-7.4,23.8-12.8,36.3-18.2c1.3,0.9,2.5,1.8,3.7,2.7
		c-13,5.7-26.1,11.1-37.8,18.8c-66.2,43.7-86.9,124.2-77.7,168.3C2351.8,1405.5,2351.3,1406.4,2350.6,1406.8L2350.6,1406.8z"/>
</g>
<g>
	<path class="st31" d="M1811.2,1800.6c0,0,5.7,30,27,40.7c21.5,10.8,50.1-12.9,51.8-27.7c2.4-20.5-3.2-51.6-3.2-51.6L1811.2,1800.6z
		"/>
	<path class="st32" d="M1365.7,1258.7c0,0-16.1,0.7-40.3,18.4c0,0,35.4-84,148.9-47l6.5,51.8
		C1480.9,1281.8,1379.6,1256.4,1365.7,1258.7z"/>
	<path class="st32" d="M1893.5,992.4c0,0,8.7-12.3,27.3-37c0,0-55.1,7.3-135.3,121.2l29.1,48.1
		C1814.7,1124.8,1887.8,999.8,1893.5,992.4L1893.5,992.4z"/>
	<path class="st33" d="M1513.8,802.1c-67.8,32.4-88.6,624.3,103.1,841.4l353.4-106C1938.8,1227.7,1596.3,762.8,1513.8,802.1z"/>
	<path class="st34" d="M1473.1,926.7c8.3-68.9,22.9-116,40.7-124.5c20-9.5,55.2,10.5,97.5,50.7c-0.9,6.5,0.5,17.3,4.7,34
		c-36.5-54.8-81.9-26.6-66.5,31c-25-52.9-80-39.1-69,22.9L1473.1,926.7L1473.1,926.7z"/>
	<path class="st35" d="M1528.3,891.5c0,0,9.2-38.9,29-48.9c0,0,3.3-25-25.7-42.2c20.3,3.6,48,22.4,79.7,52.5
		c-0.9,6.5,0.5,17.3,4.7,34c-36.5-54.8-81.9-26.6-66.5,31C1543.7,905.5,1536.2,896.8,1528.3,891.5L1528.3,891.5z"/>
	<path class="st36" d="M1475.1,1236.9c0,0,135.7,47.2,194.3,116.6c0,0,26-162.4,53.7-232.8c27.7-70.4-84.5-240.2-84.5-240.2
		c131.4,141,309.4,437.8,331.6,657l-353.4,106C1535.7,1551.6,1492.6,1392.4,1475.1,1236.9L1475.1,1236.9z"/>
	<path class="st37" d="M1490,964.9c0,0-30.1,231.9,17.2,229.3c62.8-3.5,43.3-206.9,32.3-235.8C1523.7,917.4,1494.7,923.8,1490,964.9
		z"/>
	<path class="st38" d="M1473.7,921.2c0.1,0.2,0.3,0.4,0.4,0.6c0.3-25.8,20.4-46.1,45.1-38.9c8.9,2.6,16.6,8.7,22.7,16.6
		c-1.8-27.3,17.1-51.7,43.3-45.2c8.4,2.1,15.9,7.5,22.1,14.6c-0.8-6.5-0.5-12.9,0.9-18.9c1.6,1.5,3.2,3.1,4.9,4.6
		c-1.4,9.2-0.2,19.3,4.2,28.7c5.6-3.4,12.1-5.3,19.2-5c2.1,2.2,4.1,4.4,6.2,6.7c-0.6-0.2-1.2-0.3-1.9-0.4c-11.2-2.2-21.1,2-28,9.7
		c-10.3,11.6-13.9,30.8-5.8,48.8c5.1-1.6,10.6-2.1,16.3-1.3c9.6,1.5,18.3,7,25.5,14.8c-2.4-18.1,5-35.3,17.3-45.1
		c1.2,1.4,2.4,2.9,3.6,4.3c-1.8,1.4-3.4,3-4.9,4.7c-10.7,12.2-14.7,31.8-5.8,50.3c5.7-2.7,12-4.1,18.5-3.7
		c10.3,0.5,19.8,5.6,27.7,13.4c-1.2-6.8-0.9-13.4,0.4-19.7c1.6,2.1,3.2,4.2,4.8,6.3c-0.8,8.4,0.6,17.4,5,26.1
		c3.2-2.3,6.6-4.1,10.2-5.5c1.1,1.6,2.3,3.2,3.4,4.8c-4.4,1.5-8.6,3.8-12.3,6.8c-0.2,0.3-0.5,0.5-0.8,0.7c-0.1,0-0.1,0.1-0.2,0.1
		c-14.2,11.9-21.9,33.6-11.3,54.9c16.8-10,37.5-8.3,53.3,6.5c-1.5-8.6-0.7-17.2,1.8-25c1.4,2.1,2.8,4.2,4.2,6.3
		c-2.2,10.1-1.2,21.3,4.6,31.8c4.3-1.9,8.9-3.2,13.5-3.8c1.1,1.8,2.3,3.6,3.4,5.4c-11.1,0.6-21.8,6-30,14.8
		c-11.3,12.3-17.5,32.3-8,51c10.3-4.8,21.8-6.2,32.8-3.3c6.9,1.8,13.6,5.4,19.7,11c-2.2-13.3,1.4-26.6,7.9-37.1
		c1.1,1.9,2.2,3.7,3.3,5.6c-6.7,12.4-9,28.3-1.4,43.1c6.4-4.4,13.5-7.5,20.9-9c1,1.7,1.9,3.5,2.9,5.2c-8,1.2-15.8,4.7-22.5,9.8
		c-0.2,0.2-0.5,0.5-0.7,0.6l-0.1,0c-0.1,0-0.2,0.1-0.2,0.1c-3.2,2.6-6.2,5.5-8.8,8.7c-10,12.3-15.9,31.1-6.8,48.8
		c11.1-6.5,24.2-9.7,36.8-7.6c8.2,1.4,16.1,4.9,23.2,11.3c-1.5-9.4-0.1-18.7,3.1-27.1c1.2,2.4,2.4,4.7,3.6,7.1
		c-2.8,10.2-2.5,21.7,3.6,32.3c3.4-1.6,6.9-3,10.5-4c0.8,1.8,1.7,3.5,2.5,5.3c-12.8,3.2-24.9,11.5-32.9,21.6
		c-9.6,12.1-16,30.5-7.1,47.8c18.7-9.1,41.4-10.4,58.6,5.2c-1.4-9.1,0.2-18.2,3.4-26.3c1.1,2.6,2.3,5.2,3.4,7.8
		c-2.5,9.4-2.3,19.8,2.8,29.5c2.4-1.7,4.9-3.2,7.5-4.6c0.7,1.8,1.4,3.5,2.1,5.3c-2.9,1.6-5.8,3.4-8.4,5.4c-0.2,0.2-0.4,0.4-0.6,0.5
		l-0.1,0c0,0-0.1,0-0.1,0.1c-5,3.7-9.3,8-12.9,12.4c-9.5,12-16.8,30.4-7.8,47.7c15.4-9.1,34.3-13.9,51-8.2c0.8,2.4,1.6,4.8,2.3,7.1
		c-23.7-11.4-54.1,4-69.3,21.5c-9.8,11.3-17.9,29-9.4,46.4c19.8-7.7,42.7-8.2,59.3,7.9c-1.4-14.3,5-28.1,12.7-38
		c3.8-4.9,8.6-9.7,14-14c0.6,2,1.2,3.9,1.7,5.9c-4.3,3.7-8.2,7.6-11.2,11.6c-9.1,11.7-16.5,29.5-7.9,46.3c6.8-3.5,14.1-6.2,21.5-7.6
		c3.4-0.7,6.7-1.1,10.1-1.2c0.4,1.9,0.8,3.8,1.2,5.7c-3.4,0-6.8,0.4-10.2,1.1c-18.1,3.5-35.7,15.2-45.9,26.7
		c-9.5,10.8-18.4,28-10.8,45c16.2-8.7,38.1-14.6,56.8-8.2l-10.9,3.3c-15.6-2-32.5,3.7-45.1,10.9c-0.2,0.2-0.5,0.4-0.8,0.6l-0.1,0
		c-0.1,0.1-0.3,0.1-0.4,0.1c-1.4,0.8-2.7,1.7-4,2.5c-0.8,0.5-1.5,1.1-2.3,1.6l-13.8,4.1c4-3.9,8.4-7.4,13-10.5
		c0.8-0.5,1.7-1.1,2.5-1.6c-10.7-19.1-28-24.6-45.4-22.9c-18.6,1.8-37.2,11.7-48.3,22.2c-9.8,9.2-19.6,24.2-14.9,40.7l-6.2,1.8
		c-17.2-30.2-56-24.5-77.8-14.2c-5.1,2.4-10,5.3-14.5,8.8c-10.5,8.1-21.4,21.8-17.7,38.4l-6,1.8c-13.3-29.4-45-32.2-70-25
		c-1.1-1.6-2.2-3.3-3.2-4.9c1.2-0.4,2.4-0.7,3.6-1c-3.8-10.2-10-17.3-17.5-22.1c-1.6-2.9-3.3-5.9-4.9-8.8
		c8.3,3.4,15.8,8.8,21.4,16.8c1.6-14.5,11.5-26.3,21.7-33.6c7.4-5.3,17.1-9.9,27.6-12.6c-16-40.2-63.6-35.1-87.5-18.9
		c-1.6,1.1-3.2,2.3-4.7,3.6c-0.8-1.8-1.5-3.6-2.3-5.5c1.3-1,2.5-1.9,3.8-2.8c5.1-3.4,11.2-6.4,17.7-8.6
		c-6.7-19.3-21.5-28.2-37.6-30.7c-0.7-1.9-1.3-3.9-2-5.9c14.9,1.6,29.1,8,38.4,21.5c1.5-14,10.4-25.4,20.2-32.8
		c4.5-3.4,9.8-6.4,15.6-8.7c-14.8-38.3-58.1-37.1-81.8-21.3c-1.4,1-2.9,2-4.3,3.2c-0.6-2-1.1-3.9-1.7-5.9c0.9-0.7,1.9-1.4,2.8-2
		c6-4,13.1-7.1,20.7-9c-6.3-18-19.5-27.1-34.1-30.3c-0.5-2-0.9-4-1.4-6c13.4,2.2,26,8.8,34.5,21.4c1.5-14.3,10.5-26.1,20.7-33.4
		c6.4-4.6,14.2-8.1,22.4-10.1c-13.7-35.9-52.2-38.5-75.5-23.5c-3.6,2.3-7,5.1-9.9,8.5c-0.4-2.3-0.9-4.6-1.3-6.9
		c2.5-2.4,5.3-4.6,8.1-6.4c3.9-2.5,8.1-4.5,12.6-6.1c-5.3-15.8-15.8-25.1-27.9-29.5c-0.3-2.1-0.6-4.2-1-6.3
		c10.7,3.2,20.6,9.6,27.6,20.2c1.4-15,10.7-27.3,21.8-34.6c2.8-1.8,5.7-3.4,8.8-4.7c-11.6-31-41.8-39-64.5-28.7
		c-0.2-2-0.4-3.9-0.7-5.9c2.3-1,4.7-1.8,7.2-2.4c-2.2-6.6-5.4-12.1-9.2-16.6c-0.3-3-0.6-6.1-0.9-9.1c3.3,2.9,6.2,6.3,8.8,10.2
		c1.4-16.8,12.5-30.2,25.7-36.9c3.5-1.8,7.1-3.1,10.9-4c-9-23.9-29.4-36.6-49.9-32.9c-0.1-1.9-0.2-3.8-0.3-5.7
		c18.4-3,36.8,5.5,48.5,22.9c1-17.3,12.2-31.2,25.9-37.8c0.1-0.1,0.3-0.1,0.4-0.2c-6.6-17.5-19.5-31.2-35.7-33.7
		c-6.2-1-12.5-0.2-18.4,1.8c-0.4,0.5-1,0.9-1.6,1l-0.1,0c-0.3,0.1-0.7,0.1-1,0c-8,3.6-14.9,9.8-19.1,17.9c-0.1-3.4-0.2-6.7-0.3-10.1
		c4.4-5.4,9.9-9.6,16.1-12.5c-3.6-9.9-9.2-18.7-16.4-25c0-2.4,0-4.8,0-7.2c5.6,4,10.5,9.4,14.5,15.6c1-18.1,12.8-32.1,27.8-37.7
		c-6-15.7-16.8-29.4-31.4-33.3c-3.1-0.8-6.2-1.2-9.3-1.1c0.1-1.9,0.2-3.8,0.3-5.7c3.4,0,6.9,0.4,10.5,1.3
		c10.9,2.9,20,10.6,26.9,20.7c0.3-18.8,11.8-34,27.1-39.6c-6.1-14.4-16.5-26.9-30.1-30.4c-12.6-3.2-24.2,1.4-31.6,10.5
		c0.3-3,0.6-6,0.8-9c2-1.6,4.1-3.1,6.4-4.3c-1.4-3.6-3-7.2-4.8-10.6C1473,927.2,1473.4,924.2,1473.7,921.2L1473.7,921.2z
		 M1968.6,1538c0.4-1.4,0.8-2.9,1.3-4.2c0.1,1.2,0.3,2.5,0.4,3.7L1968.6,1538L1968.6,1538z M1569.7,1506.1c22.9-6,50.4-2.8,66,19.4
		c1.3-14,10.4-25.6,19.9-33.1c4.8-3.8,10.8-7.2,17.3-10c-12.6-32-43.9-35.7-68.2-27.3c-0.4,0.5-0.9,0.8-1.6,1l-0.1,0
		c-0.4,0.1-0.8,0.1-1.2,0c-5.7,2.2-11,5.1-15.4,8.4C1575.1,1473.1,1564.7,1488.1,1569.7,1506.1L1569.7,1506.1z M1678.3,1480.3
		c22.2-7.8,49.6-7.5,66.5,12.6c0.1-14.4,8.2-27.2,17.2-35.9c4.6-4.4,10.1-8.4,16.4-11.9c-19-38.1-64.8-27.1-86.3-8.4
		C1681.1,1446.2,1671.4,1462.3,1678.3,1480.3z M1783.6,1442.5c21.5-10,48.7-12,67.1,7.1c-1-14.5,6-28.1,14.2-37.7
		c4.2-4.8,9.4-9.5,15.3-13.6c-17.1-29.4-48.3-26.4-70.5-13.3c-0.2,0.2-0.4,0.3-0.6,0.4l-0.1,0c0,0,0,0,0,0c-5.3,3.2-10.1,7-14,11
		C1784.6,1407.3,1775.8,1424.7,1783.6,1442.5L1783.6,1442.5z M1642.7,1391.4c20-5.2,42.9-2.5,57.8,15.5c0.1-14.3,7.7-27,16.8-35.6
		c5.3-5.1,11.9-9.5,19.1-12.8c-17.6-35.3-58.4-29.2-79.6-11.5C1645.2,1356.6,1635.8,1373,1642.7,1391.4L1642.7,1391.4z M1540.2,1415
		c20.6-3.5,43.5,1.7,57.2,21.6c1.3-13.9,9.9-25.4,19.6-32.9c5.7-4.4,12.6-8.1,20.2-10.6c-15-38-56.4-37.1-79.6-20.5
		C1545.5,1381.2,1535.3,1396.5,1540.2,1415z M1820.7,1531.5c7.2-2.8,14.8-4.8,22.4-5.6c15.5-1.5,30.9,2.1,42.6,14.3
		c-0.8-14.5,6.8-28.1,15-37.5c5.7-6.5,13.5-12.9,22.5-18.2c-22.6-38.1-69.5-19.7-90.2,1.4C1822.7,1496.5,1813,1513.6,1820.7,1531.5z
		 M1594.3,1598.9c22.8-4.5,48.7-0.7,63.7,20.4c1.4-14,11-25.5,20.5-32.9c4.8-3.7,10.1-6.9,15.5-9.4c2.9-1.4,6.2-2.7,9.6-3.8
		c-17.2-41.9-67.1-33.1-90.9-15.9C1601,1565.6,1589.3,1580.5,1594.3,1598.9L1594.3,1598.9z M1642.8,1538.7
		c21-3.9,44.2-0.2,58.6,18.8c0.9-13.9,9.5-25.7,18.6-33.6c7.1-6.1,17-11.9,27.9-15.7c-18.1-39.7-66.3-28.9-88.7-11.4
		C1647.9,1505.6,1637.1,1520.8,1642.8,1538.7L1642.8,1538.7z M1753.4,1506.5c5.9-1.7,11.9-2.7,18-3c15.1-0.7,30,3.5,41,15.7
		c-0.3-14.8,7.9-28.2,16.7-37.2c6.5-6.7,15.4-13,25.4-17.6c-21.1-38-67.2-23.5-88.4-3.2C1755.3,1471.4,1745.5,1488.4,1753.4,1506.5
		L1753.4,1506.5z M1774.1,1289.8c17.8-6.4,38.2-5.2,53.6,9.9c-1.7-14.6,4.2-28.7,12.3-38.9c5.1-6.5,11.8-12.2,19.2-16.6
		c-8-12.5-18.4-18.9-29.3-20.7c-17.3-2.9-35.7,5.6-47.3,18.7C1772.3,1253.8,1765.6,1272,1774.1,1289.8z M1709.2,1571.4
		c21.2-5.7,47.9-5.1,64.4,14c0.2-14.5,8.9-27.3,17.9-35.8c6.2-5.8,14.5-11.5,23.9-15.8c-9.8-19.1-26.6-25.3-43.8-24.6
		c-18.2,0.8-36.7,9.4-48,19.1C1712.8,1537.6,1702.2,1553.5,1709.2,1571.4L1709.2,1571.4z M1680.3,1329.1
		c18.2-4.5,38.6-1.6,52.7,14.3c-0.6-14.5,6.5-27.8,15.3-37c5.6-5.8,12.7-10.8,20.4-14.4c-18.4-33.7-56.2-28.8-76.7-9.6
		C1680.7,1292.9,1672.4,1310.5,1680.3,1329.1z M1741.7,1356.3c19.5-7.2,42.5-6.3,58.6,10.8c-1-14.9,6-28.8,14.7-38.4
		c4.7-5.2,10.6-10,17.2-13.8c-20.2-34.4-59.8-25.2-79.8-4.5C1741.9,1321.1,1734.1,1338.5,1741.7,1356.3L1741.7,1356.3z
		 M1900.7,1331.9c-21.8-34-62.1-20.8-81.4,0.6c-10.1,11.2-18,28.9-10.2,46.4c20.6-11.3,47.5-14.3,66.5,4.2
		c-1.6-14.7,4.8-29,12.9-39.1C1891.9,1339.7,1896,1335.6,1900.7,1331.9L1900.7,1331.9z M1703.4,1422.5
		c-16.9-37.6-60.8-31.3-82.9-14.2c-11.2,8.6-21.1,23.5-16.3,41c22.4-7.2,49.8-5,66.1,16.7c0.8-13.8,8.9-25.7,18-33.6
		C1692.6,1428.7,1697.7,1425.3,1703.4,1422.5L1703.4,1422.5z M1804.1,1381.9c-19.8-36-62-26.3-82.9-6.5
		c-10.7,10.2-19.4,26.8-12.5,44.6c21.5-9,48.7-9.7,66.3,9.8c-0.5-14.7,7.1-28.1,16-37.2C1794.7,1388.7,1799.1,1385.1,1804.1,1381.9
		L1804.1,1381.9z M1582.3,1356.7c18.8-2.9,39.2,2.3,52.4,20.1c0.7-14.1,8.8-26.3,18.4-34.2c6-5,13.5-9.2,21.6-11.9
		c-15.9-35.8-55.7-33.3-77.4-16.3C1585.8,1323.3,1576.8,1338.8,1582.3,1356.7L1582.3,1356.7z M1704.7,1267.1
		c19.3-8.8,43.2-8.2,59.9,9.6c-1.2-14.7,5-28.6,13.7-38.3c3.2-3.6,6.8-6.9,10.8-9.7c-7.2-12.5-16.8-19.6-27.2-22.5
		c-12.3-3.3-25.4-0.7-36.3,5.8c-0.2,0.2-0.5,0.4-0.8,0.5l-0.1,0c-0.1,0-0.1,0.1-0.2,0.1c-3.1,2-6,4.3-8.7,6.8
		C1704.6,1230.4,1696.8,1248.6,1704.7,1267.1L1704.7,1267.1z M1627.2,1091.1c0.6-0.3,1.3-0.6,2-0.9c17.4-7.2,36.8-2.5,50.8,12.8
		c-1.8-18.3,7.1-35.1,19.7-44.8c-8.6-15.6-22.3-26.3-37.6-26c-6.7,0.2-13.3,2.3-19.1,6.1c-0.2,0.2-0.5,0.4-0.8,0.5l0,0
		C1627.2,1049,1618.2,1069.5,1627.2,1091.1z M1513.3,1030c4.5-1,9.3-1.3,14-0.7c12,1.5,22.7,8.6,30.6,19
		c-0.6-18.6,9.8-34.5,24.1-41.9c-6.8-14.5-18.1-26.2-32-28.5C1524.7,973.6,1502.5,1000,1513.3,1030z M1608.4,1151
		c16.2-3.4,33.8,1.3,46.5,15.9c-1-16.6,7.3-31.7,18.5-40.9c3.4-2.8,7.1-5.1,10.9-6.9c-12-22.6-33.7-31.5-52.9-23.6
		C1612.9,1103.1,1598,1125.9,1608.4,1151L1608.4,1151z M1631.8,1244.2c-14.3-32.6-48.7-35.3-70.2-20.1
		c-12.1,8.6-21.1,24.3-16.2,42.4c20.2-6.3,43.9-1.6,58.7,18.5c0.6-14.4,8.5-26.7,18.4-34.7C1625.4,1248,1628.5,1246,1631.8,1244.2z
		 M1516.2,1321.8c20.7-5.1,44.7,0.2,58.9,20.9c1.1-13.7,9.1-25.3,18.7-32.8c3.9-3.1,8.4-5.7,13.1-7.8
		c-11.4-29.7-38.8-37.2-60.9-29.7c-0.4,0.5-1,0.9-1.6,1l-0.1,0c-0.4,0.1-0.8,0.1-1.2,0c-3.1,1.2-6,2.8-8.8,4.6
		C1521.4,1286.5,1511.1,1302.6,1516.2,1321.8z M1663.9,1180.5c10.8-3.7,22.7-3.9,33.6,0.3c6.6,2.5,12.9,6.7,18.4,12.6
		c-1.4-15.4,5.2-29.8,14.6-39.6c3.5-3.6,7.4-6.7,11.6-9.2c-6.2-10.9-14.5-18-23.4-21.5c-14-5.6-29.7-2.6-41.7,7.2
		C1664,1141.1,1655.5,1160.6,1663.9,1180.5z M1487.7,1230.5c18.5-2.6,38.5,4.4,50.8,22.8c1.1-14.4,9.4-26.4,19.9-33.8
		c4.2-3,8.9-5.3,13.8-7c-11.7-30.3-40.6-39.5-63-28.1C1494.1,1191.9,1482.1,1209.3,1487.7,1230.5L1487.7,1230.5z M1719.9,1208.9
		c-6.3-11.7-14.9-19.1-24.4-22.8c-15.1-5.8-32.1-2.2-44.6,8.1c-12.4,10.2-21.1,28.2-13.7,47.5c19.2-7.9,42.8-6,58.8,12.1
		c-0.8-15.2,6.5-29.1,16.1-38.4C1714.4,1213,1717.1,1210.8,1719.9,1208.9L1719.9,1208.9z M1804.8,1164.8
		c-7.2-11.4-16.4-18-26.2-20.6c-15.6-4.2-32.4,1.7-43.9,13.7c-11,11.4-17.7,29.9-9.7,48c11.8-6.4,25.6-8.7,38.6-5.2
		c7.4,2,14.5,5.9,20.8,12.1c-1.9-14.9,3.8-29.3,12.2-39.7C1799,1170.1,1801.8,1167.3,1804.8,1164.8L1804.8,1164.8z M1577.7,1210.9
		c17.8-4.1,37.7,0.5,51,17.1c-0.2-15.6,7.9-29.5,18.5-38.1c3.5-2.9,7.3-5.2,11.3-7.1c-14.4-29.5-45.1-33.4-65.7-18.8
		C1579.6,1173.2,1570.4,1191.1,1577.7,1210.9L1577.7,1210.9z M1523.1,1174.2c16.9-2,34.5,5,46.3,21.3c0.5-15.3,9-28.4,20.1-36.3
		c4.1-2.9,8.6-5.2,13.3-6.7c-11.8-27.1-37.9-35.8-58.8-25.7C1528.4,1134.3,1516.5,1152.6,1523.1,1174.2L1523.1,1174.2z M1612.3,1300
		c19.9-6.7,43.8-4.1,59.2,14.6c-0.1-14.6,7.3-27.6,16.6-36.4c3.4-3.2,7.3-6.1,11.5-8.5c-16.2-33.2-52.6-31.9-73.5-15
		C1614.1,1264.4,1605.3,1281.3,1612.3,1300L1612.3,1300z M1689.7,1116.9c7.4-2.4,15.3-3,23-1.5c8.8,1.7,17.3,6.1,24.6,13.5
		c-2.1-16,4.1-31.4,13.8-41.8c3.6-3.9,7.7-7.3,12.1-9.9c-15-24.3-40.4-28.7-59.1-15.2C1689.1,1072.9,1679.4,1095.1,1689.7,1116.9z
		 M1547.3,1119.3c18-5.9,38.3-0.6,51.9,16.3c-0.5-18,9.6-33.4,22.9-41.8c-8.2-17.4-22.9-28.9-39.3-28.6
		C1559.5,1065.7,1536.5,1089.6,1547.3,1119.3L1547.3,1119.3z M1587.4,1004.2c5.3-1.8,10.9-2.6,16.7-1.9c11,1.2,20.9,7.3,28.8,16.4
		c-1.9-18.9,7.3-36,21.1-45c-7.2-13.3-18.2-24.2-31.4-26.2C1595.9,943.4,1575.1,974.1,1587.4,1004.2L1587.4,1004.2z M1561.5,1065.7
		c-6.9-16.4-19.5-28.8-34.9-30.7c-23.9-3-47.4,19.4-39.3,48.8c6.4-2,13.2-2.7,19.8-1.7c12.7,1.9,23.7,9.9,31.7,21.3
		C1539.2,1086.7,1548.8,1073.1,1561.5,1065.7L1561.5,1065.7z M1637.3,1035.4c-7.5-14.7-19.5-26-33.8-27.5
		c-25.5-2.7-48.2,24.9-36.8,55.2c5.1-2.2,10.6-3.4,16.1-3.5c13.3-0.2,25.8,6.3,35.2,17.3C1616.8,1059.7,1625.1,1044.5,1637.3,1035.4
		z M1710.8,996.9c-8-13.5-20-23.4-33.6-24.2c-26.1-1.4-48.1,29-35,59.4c6.1-3.4,12.8-5.4,19.7-5.6c12-0.3,23.3,5.3,32.4,14.7
		C1691.9,1023.8,1699.2,1007.4,1710.8,996.9L1710.8,996.9z M1551.2,914.5c6.5-3,13.9-4,21.9-2.3c9.3,2.1,17.6,8,24.2,15.9
		c-1.6-16.6,4.6-32.2,15.4-41.4c-6.6-12.6-16.4-23.8-28.7-26.9c-10.9-2.7-20.3,1-26.7,8.2C1547.6,879,1544.3,897.4,1551.2,914.5
		L1551.2,914.5z M1537.5,972.4c4.3-0.8,8.9-0.9,13.5-0.2c10.6,1.8,19.9,8.2,27.2,17.2c-1.3-19.4,8.8-36.7,23.6-44.2
		c-6.7-13.2-17-24.7-29.9-27.5C1545,911.9,1525.6,942.9,1537.5,972.4L1537.5,972.4z M1482.7,938.6c6.3-2.1,13.3-2.4,20.5-0.6
		c9.9,2.6,18.4,9.3,25,18.1c-0.6-16.3,6.6-30.9,17.9-38.7c-6.1-13.4-15.8-25.3-28.5-29C1491.5,880.8,1472.4,909.8,1482.7,938.6
		L1482.7,938.6z"/>
	<path class="st39" d="M1588.3,1606.1c-1.1-1.6-2.2-3.3-3.2-4.9c1.2-0.4,2.4-0.7,3.6-1c-3.8-10.2-10-17.3-17.5-22.1
		c-1.6-2.9-3.3-5.9-4.9-8.8c8.3,3.4,15.8,8.8,21.4,16.8c1.6-14.5,11.5-26.3,21.7-33.6c7.4-5.3,17.1-9.9,27.6-12.6
		c-16-40.2-63.6-35.1-87.5-18.9c-1.6,1.1-3.2,2.3-4.7,3.6c-0.8-1.8-1.5-3.6-2.3-5.5c1.3-1,2.5-1.9,3.8-2.8
		c5.1-3.4,11.2-6.4,17.7-8.6c-6.7-19.3-21.5-28.2-37.6-30.7c-0.7-1.9-1.3-3.9-2-5.9c14.9,1.6,29.1,8,38.4,21.5
		c1.5-14,10.4-25.4,20.2-32.8c4.5-3.4,9.8-6.4,15.6-8.7c-14.8-38.3-58.1-37.1-81.8-21.3c-1.4,1-2.9,2-4.3,3.2
		c-0.6-2-1.1-3.9-1.7-5.9c0.9-0.7,1.9-1.4,2.8-2c6-4,13.1-7.1,20.7-9c-6.3-18-19.5-27.1-34.1-30.3c-0.5-2-0.9-4-1.4-6
		c13.4,2.2,26,8.8,34.5,21.4c1.5-14.3,10.5-26.1,20.7-33.4c6.4-4.6,14.2-8.1,22.4-10.1c-13.7-35.9-52.2-38.5-75.5-23.5
		c-3.6,2.3-7,5.1-9.9,8.5c-0.4-2.3-0.9-4.6-1.3-6.9c2.5-2.4,5.3-4.6,8.1-6.4c3.9-2.5,8.1-4.5,12.6-6.1
		c-5.3-15.8-15.8-25.1-27.9-29.5c-0.3-2.1-0.6-4.2-1-6.3c10.7,3.2,20.6,9.6,27.6,20.2c1.4-15,10.7-27.3,21.8-34.6
		c2.8-1.8,5.7-3.4,8.8-4.7c-0.7-1.9-1.5-3.8-2.4-5.5c5,2.4,10.2,4.9,15.4,7.5c-2.4,0.4-4.7,1-7,1.8c-0.4,0.5-1,0.9-1.6,1l-0.1,0
		c-0.4,0.1-0.8,0.1-1.2,0c-3.1,1.2-6,2.8-8.8,4.6c-12.9,8.5-23.2,24.5-18.1,43.8c20.7-5.1,44.7,0.2,58.9,20.9
		c1.1-13.7,9.1-25.3,18.7-32.8c3.9-3.1,8.4-5.7,13.1-7.8c-0.2-0.5-0.4-0.9-0.5-1.4c2.5,1.6,4.9,3.2,7.3,4.8
		c-6,2.1-11.6,5.1-16.4,8.8c-11.5,9-20.4,24.5-14.9,42.4c18.8-2.9,39.2,2.3,52.4,20.1c0.7-14.1,8.8-26.3,18.4-34.2
		c1.1-1,2.3-1.9,3.6-2.8c1.4,1.3,2.7,2.7,4.1,4.1c-1.4,1-2.8,2-4,3.1c-11.5,9.6-20.9,26-14,44.5c20-5.2,42.9-2.5,57.8,15.5
		c0.1-14.3,7.7-27,16.8-35.6c5.3-5.1,11.9-9.5,19.1-12.8c-14-28-42.5-29.9-64.3-20.8c0.3-2,0.7-4.2,1.1-6.5c0.5-0.2,1-0.4,1.5-0.5
		c-0.3-0.7-0.7-1.5-1-2.2c2-11.5,4.7-26.4,7.9-43c2-2.7,4.2-5.1,6.5-7.3c3.4-3.2,7.3-6.1,11.5-8.5c-3.2-6.6-7.2-11.8-11.7-15.9
		c0.4-2.1,0.9-4.3,1.3-6.4c2.3,1.8,4.6,3.9,6.7,6.3c-0.8-15.2,6.5-29.1,16.1-38.4c2.5-2.4,5.1-4.5,7.9-6.5
		c-4.7-8.8-10.8-15.2-17.5-19.3c0.5-1.9,1-3.8,1.4-5.7c4.3,2.4,8.4,5.6,12.1,9.6c-1.4-15.4,5.2-29.8,14.6-39.6
		c3.5-3.6,7.4-6.7,11.6-9.2c-5.5-9.7-12.6-16.3-20.4-20.2c0.5-1.3,1-2.5,1.4-3.7c0.2-0.5,0.4-1.1,0.6-1.6c4.8,2.3,9.4,5.6,13.6,9.8
		c-2.1-16,4.1-31.4,13.8-41.8c3.6-3.9,7.7-7.3,12.1-9.9c-10.6-17.1-26.4-24.4-41.3-22.4c-0.5-1.9-1-3.7-1.5-5.6
		c12.8-2,26.3,2,37.3,12.3c-1.5-8.6-0.7-17.2,1.8-25c1.4,2.1,2.8,4.2,4.2,6.3c-2.2,10.1-1.2,21.3,4.6,31.8c4.3-1.9,8.9-3.2,13.5-3.8
		c1.1,1.8,2.3,3.6,3.4,5.4c-11.1,0.6-21.8,6-30,14.8c-11.3,12.3-17.5,32.3-8,51c10.3-4.8,21.8-6.2,32.8-3.3
		c6.9,1.8,13.6,5.4,19.7,11c-2.2-13.3,1.4-26.6,7.9-37.1c1.1,1.9,2.2,3.7,3.3,5.6c-6.7,12.4-9,28.3-1.4,43.1
		c6.4-4.4,13.5-7.5,20.9-9c1,1.7,1.9,3.5,2.9,5.2c-8,1.2-15.8,4.7-22.5,9.8c-0.2,0.2-0.5,0.5-0.7,0.6l-0.1,0c-0.1,0-0.2,0.1-0.2,0.1
		c-3.2,2.6-6.2,5.5-8.8,8.7c-10,12.3-15.9,31.1-6.8,48.8c11.1-6.5,24.2-9.7,36.8-7.6c8.2,1.4,16.1,4.9,23.2,11.3
		c-1.5-9.4-0.1-18.7,3.1-27.1c1.2,2.4,2.4,4.7,3.6,7.1c-2.8,10.2-2.5,21.7,3.6,32.3c3.4-1.6,6.9-3,10.5-4c0.8,1.8,1.7,3.5,2.5,5.3
		c-12.8,3.2-24.9,11.5-32.9,21.6c-9.6,12.1-16,30.5-7.1,47.8c18.7-9.1,41.4-10.4,58.6,5.2c-1.4-9.1,0.2-18.2,3.4-26.3
		c1.1,2.6,2.3,5.2,3.4,7.8c-2.5,9.4-2.3,19.8,2.8,29.5c2.4-1.7,4.9-3.2,7.5-4.6c0.7,1.8,1.4,3.5,2.1,5.3c-2.9,1.6-5.8,3.4-8.4,5.4
		c-0.2,0.2-0.4,0.4-0.6,0.5l-0.1,0c0,0-0.1,0-0.1,0.1c-5,3.7-9.3,8-12.9,12.4c-9.5,12-16.8,30.4-7.8,47.7c15.4-9.1,34.3-13.9,51-8.2
		c0.8,2.4,1.6,4.8,2.3,7.1c-23.7-11.4-54.1,4-69.3,21.5c-9.8,11.3-17.9,29-9.4,46.4c19.8-7.7,42.7-8.2,59.3,7.9
		c-1.4-14.3,5-28.1,12.7-38c3.8-4.9,8.6-9.7,14-14c0.6,2,1.2,3.9,1.7,5.9c-4.3,3.7-8.2,7.6-11.2,11.6c-9.1,11.7-16.5,29.5-7.9,46.3
		c6.8-3.5,14.1-6.2,21.5-7.6c3.4-0.7,6.7-1.1,10.1-1.2c0.4,1.9,0.8,3.8,1.2,5.7c-3.4,0-6.8,0.4-10.2,1.1
		c-18.1,3.5-35.7,15.2-45.9,26.7c-9.5,10.8-18.4,28-10.8,45c16.2-8.7,38.1-14.6,56.8-8.2l-10.9,3.3c-15.6-2-32.5,3.7-45.1,10.9
		c-0.2,0.2-0.5,0.4-0.8,0.6l-0.1,0c-0.1,0.1-0.3,0.1-0.4,0.1c-1.4,0.8-2.7,1.7-4,2.5c-0.8,0.5-1.5,1.1-2.3,1.6l-13.8,4.1
		c4-3.9,8.4-7.4,13-10.5c0.8-0.5,1.7-1.1,2.5-1.6c-10.7-19.1-28-24.6-45.4-22.9c-18.6,1.8-37.2,11.7-48.3,22.2
		c-9.8,9.2-19.6,24.2-14.9,40.7l-6.2,1.8c-17.2-30.2-56-24.5-77.8-14.2c-5.1,2.4-10,5.3-14.5,8.8c-10.5,8.1-21.4,21.8-17.7,38.4
		l-6,1.8C1644.9,1601.7,1613.3,1598.9,1588.3,1606.1L1588.3,1606.1z M1475.4,1239.9c-0.1-1-0.2-2-0.3-3c0,0,1.4,0.5,4.1,1.5
		C1477.9,1238.8,1476.6,1239.3,1475.4,1239.9z M1638.6,880.5c1.4,1.5,2.8,3,4.2,4.5c-0.5-0.1-1-0.2-1.5-0.4
		C1639.6,882,1638.6,880.5,1638.6,880.5L1638.6,880.5z M1666.1,911.5c1.2,1.4,2.4,2.9,3.6,4.3c-1.8,1.4-3.4,3-4.9,4.7
		c-0.4,0.4-0.8,0.9-1.1,1.3c-1-1.8-2-3.5-3-5.2C1662.4,914.8,1664.2,913.1,1666.1,911.5z M1705.7,960.8c1.6,2.1,3.2,4.2,4.8,6.3
		c-0.8,8.4,0.6,17.4,5,26.1c3.2-2.3,6.6-4.1,10.2-5.5c1.1,1.6,2.3,3.2,3.4,4.8c-4.4,1.5-8.6,3.8-12.3,6.8c-0.2,0.3-0.5,0.5-0.8,0.7
		c-0.1,0-0.1,0.1-0.2,0.1c-3.3,2.8-6.3,6.1-8.8,9.9c-0.8-2-1.7-4.1-2.5-6.1c1.9-2.5,4-4.8,6.3-6.9c-4.7-8-10.8-14.7-17.8-19
		c-1.3-2.8-2.7-5.6-4-8.3c5.9,2.3,11.4,6.1,16.3,10.9C1704.1,973.8,1704.3,967.1,1705.7,960.8z M1969.9,1533.8
		c0.1,1.2,0.3,2.5,0.4,3.7l-1.7,0.5C1969,1536.6,1969.4,1535.2,1969.9,1533.8L1969.9,1533.8z M1804.8,1164.8
		c-7.2-11.4-16.4-18-26.2-20.6c-15.6-4.2-32.4,1.7-43.9,13.7c-11,11.4-17.7,29.9-9.7,48c11.8-6.4,25.6-8.7,38.6-5.2
		c7.4,2,14.5,5.9,20.8,12.1c-1.9-14.9,3.8-29.3,12.2-39.7C1799,1170.1,1801.8,1167.3,1804.8,1164.8L1804.8,1164.8z M1678.3,1480.3
		c22.2-7.8,49.6-7.5,66.5,12.6c0.1-14.4,8.2-27.2,17.2-35.9c4.6-4.4,10.1-8.4,16.4-11.9c-19-38.1-64.8-27.1-86.3-8.4
		C1681.1,1446.2,1671.4,1462.3,1678.3,1480.3z M1569.7,1506.1c22.9-6,50.4-2.8,66,19.4c1.3-14,10.4-25.6,19.9-33.1
		c4.8-3.8,10.8-7.2,17.3-10c-12.6-32-43.9-35.7-68.2-27.3c-0.4,0.5-0.9,0.8-1.6,1l-0.1,0c-0.4,0.1-0.8,0.1-1.2,0
		c-5.7,2.2-11,5.1-15.4,8.4C1575.1,1473.1,1564.7,1488.1,1569.7,1506.1L1569.7,1506.1z M1540.2,1415c20.6-3.5,43.5,1.7,57.2,21.6
		c1.3-13.9,9.9-25.4,19.6-32.9c5.7-4.4,12.6-8.1,20.2-10.6c-15-38-56.4-37.1-79.6-20.5C1545.5,1381.2,1535.3,1396.5,1540.2,1415z
		 M1594.4,1598.9c22.8-4.5,48.7-0.7,63.7,20.4c1.4-14,11-25.5,20.5-32.9c4.8-3.7,10.1-6.9,15.5-9.4c2.9-1.4,6.2-2.7,9.6-3.8
		c-17.2-41.9-67.1-33.1-90.9-15.9C1601,1565.6,1589.3,1580.5,1594.4,1598.9L1594.4,1598.9z M1642.8,1538.7
		c21-3.9,44.2-0.2,58.6,18.8c0.9-13.9,9.5-25.7,18.6-33.6c7.1-6.1,17-11.9,27.9-15.7c-18.1-39.7-66.3-28.9-88.7-11.4
		C1647.9,1505.6,1637.1,1520.8,1642.8,1538.7L1642.8,1538.7z M1753.4,1506.5c5.9-1.7,11.9-2.7,18-3c15.1-0.7,30,3.5,41,15.7
		c-0.3-14.8,7.9-28.2,16.7-37.2c6.5-6.7,15.4-13,25.4-17.6c-21.1-38-67.2-23.5-88.4-3.2C1755.3,1471.4,1745.5,1488.4,1753.4,1506.5
		L1753.4,1506.5z M1783.6,1442.5c21.5-10,48.7-12,67.1,7.1c-1-14.5,6-28.1,14.2-37.7c4.2-4.8,9.4-9.5,15.3-13.6
		c-17.1-29.4-48.3-26.4-70.5-13.3c-0.2,0.2-0.4,0.3-0.6,0.4l-0.1,0c0,0,0,0,0,0c-5.3,3.2-10.1,7-14,11
		C1784.6,1407.3,1775.8,1424.7,1783.6,1442.5L1783.6,1442.5z M1820.7,1531.5c7.2-2.8,14.8-4.8,22.4-5.6c15.5-1.5,30.9,2.1,42.6,14.3
		c-0.8-14.5,6.8-28.1,15-37.5c5.7-6.5,13.5-12.9,22.5-18.2c-22.6-38.1-69.5-19.7-90.2,1.4C1822.8,1496.5,1813,1513.6,1820.7,1531.5z
		 M1900.7,1331.9c-21.8-34-62.1-20.8-81.4,0.6c-10.1,11.2-18,28.9-10.2,46.4c20.6-11.3,47.5-14.3,66.5,4.2
		c-1.6-14.7,4.8-29,12.9-39.1C1891.9,1339.7,1896,1335.6,1900.7,1331.9L1900.7,1331.9z M1703.4,1422.5
		c-16.9-37.6-60.8-31.3-82.9-14.2c-11.2,8.6-21.1,23.5-16.3,41c22.4-7.2,49.8-5,66.1,16.7c0.8-13.8,8.9-25.7,18-33.6
		C1692.6,1428.7,1697.7,1425.3,1703.4,1422.5L1703.4,1422.5z M1741.7,1356.3c19.5-7.2,42.5-6.3,58.6,10.8c-1-14.9,6-28.8,14.7-38.4
		c4.7-5.2,10.6-10,17.2-13.8c-20.2-34.4-59.8-25.2-79.8-4.5C1741.9,1321.1,1734.1,1338.5,1741.7,1356.3L1741.7,1356.3z
		 M1680.3,1329.1c18.2-4.5,38.6-1.6,52.7,14.3c-0.6-14.5,6.5-27.8,15.3-37c5.6-5.8,12.7-10.8,20.4-14.4
		c-18.4-33.7-56.2-28.8-76.7-9.6C1680.7,1292.9,1672.4,1310.5,1680.3,1329.1z M1704.8,1267.1c19.3-8.8,43.2-8.2,59.9,9.6
		c-1.2-14.7,5-28.6,13.7-38.3c3.2-3.6,6.8-6.9,10.8-9.7c-7.2-12.5-16.8-19.6-27.2-22.5c-12.3-3.3-25.4-0.7-36.3,5.8
		c-0.2,0.2-0.5,0.4-0.8,0.5l-0.1,0c-0.1,0-0.1,0.1-0.2,0.1c-3.1,2-6,4.3-8.7,6.8C1704.6,1230.4,1696.8,1248.6,1704.8,1267.1
		L1704.8,1267.1z M1774.1,1289.8c17.8-6.4,38.2-5.2,53.6,9.9c-1.7-14.6,4.2-28.7,12.3-38.9c5.1-6.5,11.8-12.2,19.2-16.6
		c-8-12.5-18.4-18.9-29.3-20.7c-17.3-2.9-35.7,5.6-47.3,18.7C1772.3,1253.8,1765.6,1272,1774.1,1289.8z M1804.1,1381.9
		c-19.8-36-62-26.3-82.9-6.5c-10.7,10.2-19.4,26.8-12.5,44.6c21.5-9,48.7-9.7,66.3,9.8c-0.5-14.7,7.1-28.1,16-37.2
		C1794.7,1388.7,1799.1,1385.1,1804.1,1381.9L1804.1,1381.9z M1709.2,1571.4c21.2-5.7,47.9-5.1,64.4,14c0.2-14.5,8.9-27.3,17.9-35.8
		c6.2-5.8,14.5-11.5,23.9-15.8c-9.8-19.1-26.6-25.3-43.8-24.6c-18.2,0.8-36.7,9.4-48,19.1
		C1712.8,1537.6,1702.2,1553.5,1709.2,1571.4L1709.2,1571.4z"/>
	<path class="st40" d="M1494.6,1187.7c3.6-3.4,7.6-6.3,11.9-8.5c3.5-1.8,7.1-3.1,10.9-4c-6.8-18.1-20.2-29.8-35.1-32.8
		c-0.2-1.9-0.4-3.9-0.5-5.9c13.2,2.2,25.3,10.1,33.9,22.9c1-17.3,12.2-31.2,25.9-37.8c0.1-0.1,0.3-0.1,0.4-0.2
		c-6.6-17.5-19.5-31.2-35.7-33.7c-6.2-1-12.5-0.2-18.4,1.8c-0.4,0.5-1,0.9-1.6,1l-0.1,0c-0.3,0.1-0.7,0.1-1,0
		c-1.6,0.7-3.1,1.5-4.6,2.4c0-2.2,0.1-4.4,0.1-6.6c0.4-0.2,0.8-0.4,1.2-0.6c-0.4-1-0.7-2-1.1-2.9c0.2-7.7,0.5-15.5,0.9-23.1
		c3.8-13.4,13.9-23.6,26.2-28.1c-4.6-12.1-12.1-23-21.9-29.2c0.2-2.1,0.4-4.2,0.6-6.2c7.2,3.9,13.4,10,18.3,17.2
		c0.3-18.8,11.8-34,27.1-39.6c-6.1-14.4-16.5-26.9-30.1-30.4c-1.8-0.5-3.6-0.8-5.4-0.9c1.1-2,2.3-3.8,3.6-5.3
		c1.1,0.2,2.2,0.4,3.2,0.7c9.9,2.6,18.4,9.3,25,18.1c-0.2-5.3,0.4-10.4,1.8-15.2c1.5,1.9,3,4.2,4.4,6.7c-1.1,7.8-0.3,16.3,3.1,24.8
		c1.7-0.3,3.5-0.6,5.3-0.6c0.3,1.8,0.7,3.7,1,5.6c-22.6,0.6-40.5,25.1-30.5,52.6c4.5-1,9.3-1.3,14-0.7c8.5,1.1,16.3,4.9,23,10.8
		c0.1,2.7,0.3,5.5,0.4,8.3c-6.6-7.3-14.8-12.3-24.1-13.4c-23.9-3-47.4,19.4-39.3,48.8c6.4-2,13.2-2.7,19.8-1.7
		c12.7,1.9,23.7,9.9,31.7,21.3c0.2-11.7,5-21.9,12.3-29.5c0,3.1-0.1,6.2-0.1,9.3c-6.4,9.6-8.8,22.2-3.7,36.2
		c0.4-0.1,0.9-0.3,1.3-0.4c-0.2,2.1-0.5,4.2-0.8,6.2c-1.3,0.5-2.6,1-3.9,1.6c-15.6,7.5-27.5,25.8-20.9,47.4c3.6-0.4,7.3-0.4,10.9,0
		c-1.1,1.9-2.2,3.8-3.4,5.5c-7.4-0.4-14.8,1.2-21.6,4.7c-3.7,1.9-7.3,4.4-10.4,7.4C1497.2,1190.7,1495.9,1189.4,1494.6,1187.7
		L1494.6,1187.7z"/>
	<path class="st41" d="M1689.1,1441.6c33.4-217.1,165.6-402,204.4-449.1c-14.8,88.1-12.5,129.1,4,246.8
		c13,92.9,118.2,236.7,64.7,407.2c-32.9,105-71.6,137.2-126.3,159.2L1689.1,1441.6z"/>
	<path class="st42" d="M1893.5,992.4c-10.9,64.9-12.5,104.2-6,167.5c17.8,173.3-28.8,298.9-51.8,285.6
		c-67.5-38.9-99.1-177.6-99.1-177.6C1789.6,1131.1,1865.7,1026.2,1893.5,992.4z"/>
	<path class="st43" d="M1762.8,1206.4c49.3-106.3,107.2-185.4,130.7-214c-2.6,15.6-4.7,29.7-6.3,43
		C1830.3,1093.3,1762.8,1206.4,1762.8,1206.4z"/>
	<path class="st44" d="M1896.3,1229.9c0.4,3.1,0.9,6.2,1.3,9.3c13,92.9,118.2,236.7,64.7,407.2c-32.9,105-71.6,137.2-126.3,159.2
		l-146.8-364c3.3-21.2,7.5-42,12.4-62.5c12.9,12.9,154.7,156.9,176.2,287.1c0,0,57.4-105.5,50.5-184.4
		C1921.4,1402.8,1887.1,1312.3,1896.3,1229.9z"/>
	<path class="st45" d="M1722.5,1524.3l-4.7-11.6c1.7-18.5,3.6-36.8,5.5-54.7c5.4-50.8,49.3-191.5,86.1-259.8
		c21.2-39.4,40.4-79.8,61.5-119.2c4.6-8.6,9.5-17,14.5-25.4c-0.4,4.3-0.7,8.5-0.9,12.7c-2.9,5.1-5.8,10.2-8.6,15.4
		c-21.1,39.4-40.3,79.9-61.5,119.2c-36.4,67.7-80.1,207.3-85.4,257.7C1726.7,1480,1724.4,1502,1722.5,1524.3L1722.5,1524.3z
		 M1755.7,1606.6c0.6-160,60.5-309.1,131.1-453.9c0.3,3.5,0.7,7.1,1.1,10.8c-70.6,145.7-129.5,295.9-126.4,457.5L1755.7,1606.6z
		 M1800.4,1717.4c0.1-20.2,1.1-40.1,2.3-58.8c8.5-136.8,43-273.4,99.1-398.5c0.7,2.9,1.5,5.8,2.3,8.7
		c-54.1,122.7-87.5,256.3-95.7,390.1c-1.4,22.9-2.7,47.7-2.2,72.7L1800.4,1717.4L1800.4,1717.4z M1831.3,1794.1
		c-4.3-47.4-5.8-96.7,1.5-141.6c7.6-46.9,28.1-90.6,37.5-137.2c11.9-58.8,25.1-141.9,49.3-200.1c1,2.6,1.9,5.2,2.9,7.9
		c-22.6,57.4-35.2,136.7-46.7,193.3c-9.4,46.5-29.9,90.1-37.5,136.9c-7.8,47.9-5.4,101-0.4,151.3c-0.7,0.3-1.4,0.6-2.1,0.8
		L1831.3,1794.1z M1866.3,1791c3.6-39.2,16-78.5,21-117.4c12.3-96.6,24.5-191.5,60.6-281.5c0.9,2.8,1.9,5.6,2.8,8.4
		c-34,87.7-45.8,179.9-57.7,273.8c-4.8,37.5-16.5,75.2-20.5,113C1870.4,1788.6,1868.4,1789.8,1866.3,1791L1866.3,1791z
		 M1915.8,1746.4c5.8-78.8,18.9-154.2,38.4-231.2c4.5-17.6,7.7-37.8,12.7-56.8c0.9,4.2,1.8,8.4,2.7,12.7
		c-3.5,15.5-6.3,31.4-9.9,45.5c-18.6,73.5-31.3,145.6-37.5,220.6C1920.1,1740.4,1918,1743.4,1915.8,1746.4L1915.8,1746.4z"/>
	<path class="st41" d="M1856.5,1796.3c0,0-6.9-196.6-138.6-346.3c-96-109.1-246.4-203.5-352.3-191.3c0,0,79.5,49,124.1,142.5
		c34.7,72.8,51.8,253,177.1,353.4C1724.3,1800.6,1826.8,1821.9,1856.5,1796.3L1856.5,1796.3z"/>
	<path class="st42" d="M1544.8,1569.1c-24.6-67.3-37.7-131.2-55.1-167.9c-44.5-93.5-124.1-142.5-124.1-142.5
		c81.2-9.3,188.6,44,277.5,118.6c32.3,62.1,47.6,159.5,10,206.1C1633.2,1608.1,1552.1,1576.7,1544.8,1569.1L1544.8,1569.1z"/>
	<path class="st46" d="M1530.5,1526.7c-16.1-50.9-27-96.6-40.8-125.5c-44.5-93.5-124.1-142.5-124.1-142.5
		c11.8-1.4,28.8-1.1,48.7,1.2c65.5,9.5,140.5,48.2,207.5,100.2c-76.5-53.7-194.6-76.6-194.6-76.6s42.6,50.8,66.6,104.2
		C1513.8,1432.3,1530.5,1526.7,1530.5,1526.7L1530.5,1526.7z"/>
	<path class="st47" d="M1564.1,1616.1c0,0,168.8,111.8,196.8,59c28.1-52.8-37.4-218.6-37.4-218.6c126.3,148.8,133,339.9,133,339.9
		c-29.6,25.6-132.2,4.3-189.6-41.7C1619.3,1716.5,1587.3,1666.9,1564.1,1616.1z"/>
	<path class="st45" d="M1837.5,1805.1c-19.9-71.6-46.6-150.3-79.3-210.4c-46-84.7-148-181.4-227.8-234.3
		c-31.1-20.6-65.2-31.7-98.8-44.5c-3.1-3.3-6.1-6.6-9.1-9.6c37.5,15,76.1,26.3,111,49.4c80.5,53.3,183.3,151,229.7,236.3
		c32.9,60.5,59.8,139.7,79.8,211.6C1841.2,1804.1,1839.4,1804.6,1837.5,1805.1L1837.5,1805.1z M1491,1403.9
		c17.7,9.7,35.4,19.5,52.9,29.5c139,79.7,157.6,144.5,225,278.4c5.9,11.7,27.8,58.1,37.8,90.1c0.6,1.8,1.1,3.5,1.6,5.2
		c-2-0.1-4-0.2-6-0.4c-0.3-1-0.6-2.1-1-3.2c-9.9-31.7-31.6-77.6-37.5-89.3c-66.8-132.7-85-197-222.8-276
		c-15.4-8.8-30.9-17.5-46.5-26C1493.4,1409.4,1492.2,1406.6,1491,1403.9L1491,1403.9z M1515.8,1477.9
		c58.2,35.7,128.6,88.1,167.5,140c21.8,29.2,38.1,61.7,55.9,93.4c6.4,11.4,29.7,49.4,40.1,77.3c2.2,5.9,3.8,11.4,4.6,16.1
		c-2-0.3-4-0.7-6-1.1c-0.8-3.9-2.2-8.3-4-13c-10.3-27.6-33.4-65.3-39.7-76.5c-17.7-31.4-33.8-63.8-55.5-92.7
		c-37.3-49.8-104-100-160.6-135.2C1517.4,1483.3,1516.6,1480.6,1515.8,1477.9L1515.8,1477.9z M1540.4,1556.5
		c13,12.1,25.3,25.6,37.4,36.1c65.6,56.3,131,122.9,168.1,202.7c-2.5-0.8-5-1.6-7.5-2.5c-37.1-76.9-100.7-141.3-164.3-195.9
		c-9.7-8.3-19.4-18.7-29.5-28.6C1543.1,1564.3,1541.7,1560.4,1540.4,1556.5z M1571.3,1631.2c36.2,28.9,76,61.9,101.6,99.3
		c3.2,4.7,14.8,20.5,19.8,32.8c1.4,3.4,2.3,6.6,2.5,9.3c0,0.3,0,0.6,0,0.9c-2.1-1.2-4.2-2.4-6.2-3.6c-0.4-1.4-0.9-2.9-1.5-4.5
		c-4.9-11.9-16.1-27.1-19.3-31.7c-23-33.5-57.6-63.5-90.5-90.1C1575.4,1639.5,1573.3,1635.4,1571.3,1631.2L1571.3,1631.2z"/>
</g>
<g>
	<path class="st48" d="M2487.1,928.9c9.1,14.7-19.7,38.6-36.7,43.2c0,0,29.7,4.2,14.9,25.4c-8.5,12.1-46,11.6-52.3,6.5
		c0,0,19.3,12.2,12,24.8c-8.3,14.4-51.7,27.6-67.8,6.2c-19.6-26.1-14-71.3,0.8-79.7c16.4-9.3,28.5,13.7,28.5,13.7
		s-1.3-45.7,21.6-54.2c16.5-6.1,24.3,17.5,19.1,28.2C2427.2,943.1,2474,907.6,2487.1,928.9L2487.1,928.9z"/>
	<path class="st49" d="M2413.1,1038.9c-16.5,8.8-43.9,12.2-56-3.8c-19.6-26.1-14-71.3,0.8-79.7c16.4-9.3,28.5,13.7,28.5,13.7
		s-1.3-45.7,21.6-54.2c0.9-0.3,1.8-0.6,2.6-0.7c-10.2,13.2-14.7,24.7-16.3,41.5c-1.2,12.7-2.4,27.5,1.4,39.8
		C2399.8,1008.6,2410.7,1024,2413.1,1038.9L2413.1,1038.9z"/>
	<path class="st50" d="M2444.1,947.9c1.2-0.6,2.7,0,3.2,1.2c0.6,1.2,0,2.7-1.2,3.2c0,0-32.5,16.1-61.6,49.2
		c-15.5,17.6-30,40.2-37.9,67.8c-1,3.2-4.3,4.9-7.5,4c-3.2-1-4.9-4.3-4-7.5c9.6-28.8,25.9-52,43.1-69.9
		C2409.8,963,2444.1,947.9,2444.1,947.9z"/>
	<path class="st48" d="M2227.3,761c-26.2,14.5-1.4,61.9,12,89.5c-10.8-7.4-48.6-2.4-37.8,26.8c10,27.1,38.3,46.2,59.9,58.4
		c-11.4-2.1-59.6-6.9-40.4,33c14.8,30.6,80.1,59,111.9,49.3c34.3-10.5,70.4-56.8,55.4-109.5c-6.2-21.7-27.4-16.9-37.6-3.1
		c3.2-22,20.1-71.3-5.6-94.4c-22.1-19.8-41.9,6.6-41.9,15.2C2303.3,826.3,2265.2,740.1,2227.3,761L2227.3,761z"/>
	<path class="st51" d="M2350.8,905.3c-4.6-5.1-9.2-10.2-14-15.2c-29.1-30.4-69.7-60.7-112.8-72.9c-9.1-22.9-13.8-46.6,3.3-56.1
		c37.9-20.9,75.9,65.3,75.9,65.3c0-8.6,19.8-35.1,41.9-15.2C2370.8,834.1,2354,883.3,2350.8,905.3z M2391.6,940.6
		c-0.6,0.4-1.1,0.6-1.7,0.8c-6.4,2.2-12.3-5.8-15.9-9.8c-7.9-8.7-15.4-17.5-23.2-26.3c10.3-13.7,31.4-18.4,37.6,3.2
		C2391.6,919.6,2392.5,930.4,2391.6,940.6z"/>
	<path class="st50" d="M2254,808.2c-0.7-1.2-0.2-2.6,0.9-3.3c1.2-0.7,2.6-0.2,3.3,0.9c0,0,43.6,74.8,68.1,162.5
		c10.7,38.3,17.8,79.1,16.1,117.2c-0.2,3.3-3,5.8-6.3,5.7c-3.3-0.2-5.8-3-5.7-6.3c2.5-37-3.5-76.7-13-114.2
		C2295.4,883.3,2254,808.2,2254,808.2z"/>
	<path class="st52" d="M2339.6,1052.6c-122.3-12.9-173.6,57.4-148.3,118.9c27.4,66.9,98.7,58.5,123.8,113.9
		c30.4-53.8,111.4-33.7,144.8-85.6C2496.5,1143,2462,1065.5,2339.6,1052.6L2339.6,1052.6z"/>
	<path class="st53" d="M2187.8,1161.3c18.2-0.1,37.9,0.3,54.1,8.4c12.3,6.2,19.5,20.1,33.1,24.1c20.5,6,40.1-6.4,60.4-6.6
		c24.4-0.2,46.2,14.9,71,9.6c39.5-8.3,39-68.3,42.7-99.3c29.3,30.1,31.8,69.7,10.8,102.4c-33.4,52-114.4,31.9-144.8,85.6
		c-25.1-55.4-96.4-47-123.8-113.9C2189.9,1168.1,2188.7,1164.7,2187.8,1161.3L2187.8,1161.3z"/>
	<path class="st54" d="M2383.2,1089.4c-7.4-3.6-39.8,4-63.4-6.9c-21.5-10-66.1-10.1-68.6,5.3c-1.1,7.1-2.2,36.1,27.5,53.8
		c9.1,5.4,20.9,4.7,31.2,4.7c21.8,0,46.4-0.2,65.9-11.9C2389.6,1126.1,2402.8,1099,2383.2,1089.4z"/>
	<path class="st55" d="M2193,1175.4c23.7,8.9,66.2,20.7,125.7,21.8c1.4,0,2.5,1.2,2.5,2.5c0,1.4-1.2,2.5-2.5,2.5
		c-56.2-1.1-97.4-11.6-122.3-20.4C2195.1,1179.9,2194,1177.7,2193,1175.4z M2412.3,1233.9c-57.6,12.3-92.8,6.8-92.8,6.8
		c-1.4-0.2-2.3-1.5-2.1-2.9c0.2-1.4,1.5-2.3,2.9-2.1c0,0,44.7,7,115.7-12.8C2428.7,1227.4,2420.6,1230.9,2412.3,1233.9z
		 M2464,1117.2c-50.6,5.5-120.4-5.1-120.4-5.1c-1.4-0.2-2.3-1.5-2.1-2.8c0.2-1.4,1.5-2.3,2.8-2.1c0,0,67,10.2,116.9,5.3
		C2462.2,1114.1,2463.1,1115.6,2464,1117.2L2464,1117.2z M2240.7,1064.3c25.4,6,67.9,14.5,101.1,13.9c1.4,0,2.5,1.1,2.5,2.5
		s-1.1,2.5-2.5,2.5c-36.4,0.6-83.8-9.6-108.3-15.5C2235.8,1066.5,2238.2,1065.4,2240.7,1064.3L2240.7,1064.3z M2265.8,1151.8
		c-1.4-0.3-2.2-1.6-2-2.9c0.3-1.4,1.6-2.2,2.9-2c0,0,92.5,17.6,155.1,10.4c1.4-0.2,2.6,0.8,2.8,2.2c0.2,1.4-0.8,2.6-2.2,2.8
		C2359.2,1169.6,2265.8,1151.8,2265.8,1151.8z"/>
</g>
<g>
	<path class="st56" d="M1038.6,836.9c17.7,27,40.6,35.5,69.4,39.3c0,0-17.7,7.4-15.8,27.2c2.1,22,48.1,21.3,77.4,12.9
		c0,0-23.7,8.4-14.9,27.9c6,13.4,42.4,26.8,91.6,9.1c25.7-17.3,20.9-91-8.7-110.2c-24.3-15.7-28.6,21.7-28.6,21.7
		s-12.3-66.1-58.1-66.4c-19.2-0.1-23.7,14.4-22.6,24.5C1106.2,800.7,1048.8,806.8,1038.6,836.9L1038.6,836.9z"/>
	<path class="st57" d="M1175.7,806.2c25.7,17.5,33.3,58.6,33.3,58.6s4.3-37.5,28.6-21.7c29.6,19.2,34.4,92.9,8.7,110.2
		c-49.3,17.8-85.6,4.4-91.6-9.1c-8.7-19.5,14.9-27.9,14.9-27.9c-28.2,8.1-71.7,9.1-77-10.4c15.6-4.6,37-0.2,53.5,0.8
		c7.5,0.4,15,0.5,22.5,0.5c8.4,0,22.4,2.1,29-4.6c6.4-6.6,3.4-19.7,1.6-27.6c-4-17.4-12.8-33.4-18.8-50.2
		C1178.4,819,1177.3,812.4,1175.7,806.2L1175.7,806.2z"/>
	<path class="st58" d="M1274,1020.8c0.4,3-1.7,5.8-4.7,6.2c-3,0.4-5.8-1.7-6.2-4.7c0,0-9.4-74.9-62.7-128.2
		c-29.1-29.2-71.4-51.8-132.2-52.7c-0.7,0-1.2-0.5-1.2-1.2c0-0.7,0.5-1.2,1.2-1.2c62.3-0.9,106.1,21.3,136.9,50.3
		C1262.1,943.2,1274,1020.8,1274,1020.8L1274,1020.8z"/>
	<path class="st56" d="M1420.8,610.5c-3.7,24.5-30.3,57.8-48.2,73.5c0,0,24.4-6.2,27.4,9.8c4.1,22-47.8,49.1-63.9,53.8
		c0,0,43.6-3.1,46,18.8c4,37.1-49.8,58.4-60.9,66.8c0,0,47.5-20.3,51.4,12c3.8,32.3-62.1,83.2-102.8,79.8
		c-50.2-4.2-75.4-64.9-71.5-91.8c3.8-26.9,33.9,0,33.9,0s-17.4-61.8-14.1-85.6c4-28.1,28.3-27,44.5-9.2c0,0-3.5-70.8,15.9-88.6
		c11.6-10.7,26.8-9.1,31.6,11.1C1343.3,616.4,1390.9,604.3,1420.8,610.5L1420.8,610.5z"/>
	<path class="st58" d="M1283.2,986.9c0.6,3-1.4,5.9-4.4,6.4c-3,0.6-5.9-1.4-6.4-4.4c-12.6-69.3-8.5-155.7,14.4-227.4
		c17.4-54.2,45.5-99.9,85.2-123.5c0.6-0.3,1.3-0.2,1.7,0.4c0.3,0.6,0.2,1.3-0.4,1.7c-38.5,24-65,69.6-80.9,123.2
		C1271.5,834.1,1269.3,919.1,1283.2,986.9L1283.2,986.9z"/>
	<path class="st59" d="M1172.4,1092.7c-16.7-122.1,175.7-160.4,214.6-64.1c39,96.3,142.4,705.4,142.4,705.4l-190.7-10
		C1338.7,1724,1184,1177.4,1172.4,1092.7L1172.4,1092.7z"/>
	<path class="st60" d="M1520.4,1681.7c5.7,32.7,9,52.3,9,52.3l-190.7-10c0,0-154.7-546.6-166.3-631.3c-4.3-31.4,5.2-57.2,22.4-76.7
		c-0.6,16.1-0.2,57.8,14.1,106.7c49.4,168.5,159.4,474.2,175.1,503.3C1418.2,1689.4,1484.7,1687.9,1520.4,1681.7L1520.4,1681.7z"/>
	<path class="st61" d="M1226.3,991.3c55.7-30.2,136.9-21.6,160.7,37.3c18.9,46.7,53,214,83,374c-56.2,17-128.6-55.2-161.2-115.8
		C1268.3,1211.5,1236.7,1049.6,1226.3,991.3L1226.3,991.3z"/>
	<path class="st62" d="M1307.2,1060.8c-2-35.5,37.9-39,57.6,0c13.5,26.7,26.3,105.7,35.2,148.6c5.3,25.3-36.2,56.4-53.1,0
		C1332.2,1160.1,1308.3,1081.1,1307.2,1060.8z M1390.2,1258.5c25.2-2.5,32.1,12.8,30.4,26.9c-2.2,17.3-28.9,23.8-42,10.6
		C1365.4,1282.8,1372.9,1260.2,1390.2,1258.5z M1407.2,1327.8c14.9-1.5,19,7.6,18,15.9c-1.3,10.3-17.1,14.1-24.9,6.3
		C1392.5,1342.2,1396.9,1328.8,1407.2,1327.8z"/>
	<path class="st63" d="M1199.9,1010.6c13.5,1.5,59.2,5.4,93.4-6.9c2.9-1,6,0.5,7,3.3c1,2.9-0.5,6-3.3,7
		c-42.9,15.4-102.6,6.9-102.6,6.9c-1.1-0.2-2-0.6-2.8-1.2C1194.2,1016.6,1196.9,1013.5,1199.9,1010.6L1199.9,1010.6z M1397.8,1061.9
		c-69.5,36.9-152.6,37.3-152.6,37.3c-3,0-5.5-2.4-5.5-5.5c0-3,2.4-5.5,5.5-5.5c0,0,82-0.3,149.5-37.1
		C1395.7,1054.5,1396.7,1058.1,1397.8,1061.9L1397.8,1061.9z M1457,1334.1c-25.4,9.6-72.6,24.8-119,25.6c-3,0-5.5-2.4-5.6-5.4
		c0-3,2.4-5.5,5.4-5.6c46.1-0.7,93-16.2,117.1-25.5C1455.6,1326.8,1456.3,1330.4,1457,1334.1z M1484.2,1478.7
		c-42.5,9.6-97.6,14.2-97.6,14.2c-3,0.2-5.7-2-5.9-5c-0.2-3,2-5.7,5-5.9c0,0,55-4.4,96.5-14
		C1482.9,1471.6,1483.5,1475.2,1484.2,1478.7L1484.2,1478.7z M1513.6,1642.8c-27.7,6.1-62.7,9.1-62.7,9.1c-3,0.2-5.7-2-5.9-5
		c-0.2-3,2-5.7,5-5.9c0,0,34.9-2.8,61.7-8.8C1512.4,1635.8,1513,1639.3,1513.6,1642.8L1513.6,1642.8z M1222.3,1300.3
		c19.9,0.5,74.6,0.2,138.6-15.6c2.9-0.7,5.9,1.1,6.7,4c0.7,2.9-1.1,5.9-4,6.7c-62,15.3-115.5,16.4-138.3,16
		C1224.3,1307.7,1223.3,1304,1222.3,1300.3z M1320.7,1574.3c-3,0.2-5.7-2-5.9-5c-0.2-3,2-5.7,5-5.9c0,0,58.6-4.7,82.2-15.1
		c2.8-1.2,6,0,7.3,2.8c1.2,2.8,0,6-2.8,7.3C1381.9,1569.1,1320.7,1574.3,1320.7,1574.3z M1228.6,1173.8c-3-0.3-5.3-2.9-5-5.9
		c0.3-3,2.9-5.3,5.9-5c0,0,37,3.2,63.5-8c2.8-1.2,6,0.1,7.2,2.9c1.2,2.8-0.1,6-2.9,7.2C1268.6,1177.1,1228.6,1173.8,1228.6,1173.8
		L1228.6,1173.8z M1295.4,1237.4c-3,0.1-5.6-2.2-5.7-5.3c-0.1-3,2.2-5.6,5.3-5.7c0,0,63.6-2.7,102.7-22c2.7-1.3,6-0.2,7.4,2.5
		c1.3,2.7,0.2,6-2.5,7.4C1361.7,1234.4,1295.4,1237.4,1295.4,1237.4z M1282.7,1428.7c-3,0.3-5.7-1.9-6-4.9c-0.3-3,1.9-5.7,4.9-6
		c0,0,84.9-8.9,122.3-22.8c2.8-1.1,6,0.4,7.1,3.2c1.1,2.8-0.4,6-3.2,7.1C1369.5,1419.4,1282.7,1428.7,1282.7,1428.7L1282.7,1428.7z"
		/>
</g>
<g>
	<path class="st57" d="M801.7,1139.2c0,11.9,43.9,10.4,62.7,9.5c0,0-16.8,10.5-7.3,21.5c14.1,16.3,55,0.9,78.2-4.4
		c0,0-18.1,16.5-8.6,30.5c9.7,14.3,53.8,4.9,67.4,2.4c0,0-24.2,14.6-17.2,27.1c4.3,7.8,62.2,14,91-3.7c30.7-9.3,22.5-83.3-5.9-85.2
		c-11.3-0.8-16.9,17.7-16.9,17.7s-21.1-49.8-37.3-49c-15.3,0.8-13.6,22-13.6,22s-31.7-46.8-55.7-40.8c-18.5,4.6-3.1,25.3-3.1,25.3
		s-53.1-30.8-74.4-20.2c-11.2,5.6,6.5,20.2,6.5,20.2S801.6,1114.5,801.7,1139.2z"/>
	<path class="st58" d="M1083.1,1234.2c1.3,2.7,0.1,6-2.6,7.3c-2.7,1.3-6,0.1-7.3-2.6c0,0-26.2-56.8-103.8-86.7
		c-35-13.5-80.4-21.5-138.4-16.6c-0.7,0.1-1.3-0.4-1.3-1.1c-0.1-0.7,0.4-1.3,1.1-1.3c58.7-6.7,105,0.1,141,12.7
		C1054.2,1174.9,1083.1,1234.2,1083.1,1234.2z"/>
	<path class="st56" d="M1108.3,926c-20.1-5-50.1,37.4-52.9,62.1c0,0-17.3-12.8-29.8,0c-12.5,12.8-2,55.2,4.9,75.3c0,0-26-20-30.1,0
		c-4.1,20,5.6,52.7,20.7,68c0,0-21.5-5.9-20.7,14.3c0.7,17.8,34.9,52.9,68.6,54c17.1,0.6,68.3-38.9,60.8-60.3
		c-4.7-13.6-26.7-4.1-26.7-4.1s33.7-54.7,26.7-68c-8.7-16.6-30.5-4-30.5-4s27.2-25.4,22.6-50.9c-2.8-15.2-18.7-7.6-18.7-7.6
		S1124.9,930.1,1108.3,926L1108.3,926z"/>
	<path class="st58" d="M1082.6,1245.8c0.7,3-1.2,5.9-4.1,6.6c-3,0.7-5.9-1.2-6.6-4.1c0,0-18.2-85.8-11.3-173.4
		c3.1-39.4,11.3-79.2,28.5-111.8c0.3-0.6,1-0.8,1.6-0.5s0.8,1,0.5,1.6c-16,32.6-22.9,72.1-24.8,111.1
		C1062.2,1161.8,1082.6,1245.8,1082.6,1245.8z"/>
	<path class="st61" d="M1096.3,1768.2c0,0-114.6-283.5-131-414.5c-15.2-121.8,188.6-196.2,266.1-101.2
		c64.6,79.2,155.8,544.7,155.8,544.7C1285,1793.4,1195.9,1782.7,1096.3,1768.2L1096.3,1768.2z"/>
	<path class="st64" d="M1286.8,1382.9c51.6,164.8,100.4,414.4,100.4,414.4c-102.3-3.8-191.4-14.5-291-29c0,0-114.6-283.5-131-414.5
		c-4.8-38.6,12.4-72.5,40.6-97.7c0,0-25.1,43.6-6.8,110.1c18.3,66.5,95.2,227.4,131.8,271.3c21.4,25.6,103.4,48,109.4-11.7
		c1-10.3-1-78.4,0-149.1C1241.3,1404.4,1272.6,1387.8,1286.8,1382.9L1286.8,1382.9z"/>
	<path class="st65" d="M993.5,1476.6c0,0,78.6,161.5,102.8,182.8c24.1,21.3,145.7,73.4,187.7,36.6
		c-32.1-105.3-35.6-182.4-27.7-230.5c4-24.1,25.5-38.5,40.2-50.5c39.8,136,76.3,310.8,87.3,365.3c-6.2,6.5-12.6,12.1-19.1,16
		c-93-4.5-176.3-14.6-268.5-28.1C1096.3,1768.2,1032.7,1611,993.5,1476.6L993.5,1476.6z"/>
	<path class="st66" d="M1076.4,1310.3c-4.2-45.9,105.9-66.2,126.2-21.8c20.4,44.4,34.1,88.8,36.7,125.3
		c2.6,36.5-60.7,84.5-110.8,19.9C1098.6,1395.3,1079.3,1342.2,1076.4,1310.3L1076.4,1310.3z"/>
	<path class="st65" d="M965,1351c-0.3-3.4-0.5-6.7-0.5-10c7.1-0.7,90.5-9.8,148.2-40.1c2.4-1.3,5.5-0.3,6.8,2.1
		c1.3,2.4,0.3,5.5-2.1,6.8C1056.2,1341.9,966.7,1350.8,965,1351z M1272.8,1340.7c-7.2,3.8-70.1,36.6-121.6,46.3
		c-2.7,0.5-5.3-1.3-5.8-4c-0.5-2.7,1.3-5.3,4-5.8c53.4-10.1,119.4-45.6,119.4-45.6c0.2-0.1,0.4-0.2,0.7-0.3
		C1270.6,1334.3,1271.7,1337.4,1272.8,1340.7L1272.8,1340.7z M1313,1474.1c-9.7,5.2-84.8,44.8-121.8,51.7c-2.7,0.5-5.3-1.3-5.8-4
		s1.3-5.3,4-5.8c38.7-7.2,120-51.2,120-51.2c0.3-0.2,0.7-0.3,1.1-0.4C1311.3,1467.5,1312.2,1470.8,1313,1474.1L1313,1474.1z
		 M1351.7,1631.1c-9.9,4.6-91.9,42.6-139.8,54c-2.7,0.6-5.4-1-6-3.7c-0.6-2.7,1-5.4,3.7-6c50.3-11.9,138.8-53.7,138.8-53.7
		c0.3-0.2,0.7-0.3,1-0.4C1350.2,1624.6,1350.9,1627.9,1351.7,1631.1L1351.7,1631.1z M1090.7,1271.4c-2.6,0.9-5.5-0.5-6.3-3.2
		s0.6-5.5,3.2-6.3c0,0,41-13.6,64.9-23.9c2.5-1.1,5.5,0.1,6.6,2.6c1.1,2.5-0.1,5.5-2.6,6.6
		C1132.2,1257.6,1090.7,1271.4,1090.7,1271.4L1090.7,1271.4z M1191,1756.1c-2.7,0.4-5.3-1.5-5.7-4.2c-0.4-2.7,1.5-5.3,4.2-5.7
		c0,0,88.1-12.7,111.9-24c2.5-1.2,5.5-0.1,6.7,2.4c1.2,2.5,0.1,5.5-2.4,6.7C1281.3,1742.8,1191,1756.1,1191,1756.1L1191,1756.1z
		 M1080.7,1491.3c-2.7,0.7-5.4-0.9-6.1-3.6c-0.7-2.7,0.9-5.4,3.6-6.1c0,0,71.1-18.4,94.9-34.2c2.3-1.5,5.4-0.9,6.9,1.4
		s0.9,5.4-1.4,6.9C1154.1,1472.1,1080.7,1491.3,1080.7,1491.3z M1116.1,1618.2c-2.7,0.5-5.3-1.2-5.9-3.9c-0.5-2.7,1.2-5.3,3.9-5.9
		c0,0,101.5-20.3,154.4-53.2c2.3-1.5,5.4-0.7,6.9,1.6c1.5,2.3,0.7,5.4-1.6,6.9C1219.7,1597.3,1116.1,1618.2,1116.1,1618.2z"/>
</g>
<g>
	<path class="st57" d="M1371.7,1186.2c11.1,4.7-1.7,41.3-8,55.7c0,0,10.6-5.8,15.7,5.3c5.2,11.5-9.8,28.1-24.5,43.8
		c0,0,15.2-5.3,20.8,3.3c6.6,10.3-5.2,43.5-20.8,57.3c0,0,19.4-13.3,20.8,4.6c2,25-26,49.2-43.9,48.3c-20.2-1-52-31.9-51.3-48.3
		c0.2-5.2,2.9-9.1,6.6-11.1c4.9-2.6,11.7-2,17,3.1c0,0-22.9-28.5-17-61.4c2.1-11.8,21.8,0,21.8,0s-15.6-41.9-4.8-56.5
		c8.2-11.1,17.9,5.4,17.9,5.4C1322.6,1221.5,1346.1,1175.3,1371.7,1186.2L1371.7,1186.2z"/>
	<path class="st58" d="M1346.4,1449.7c0.7,2.1-0.5,4.4-2.6,5c-2.1,0.7-4.4-0.5-5-2.6c0,0-17.8-56.5-15.9-123.9
		c1.1-39.3,9-82.2,31.1-119.8c0.2-0.4,0.8-0.6,1.2-0.3c0.4,0.2,0.6,0.8,0.3,1.2c-20.9,37.6-27.6,80.2-27.8,119
		C1327.6,1394.6,1346.4,1449.7,1346.4,1449.7L1346.4,1449.7z"/>
	<path class="st56" d="M1197.6,1313.8c-3.6,8,21.1,21.1,31.5,25.7c0,0-8.5,2.2-5.7,10.5c2.9,8.7,19,10.1,34.5,11.2
		c0,0-10.7,4.6-9.4,11.9c1.5,8.7,24.1,20.6,39.1,20.3c0,0-16.8,2.4-8.8,12.6c11.2,14.2,37.9,13.4,47,4.1c10.2-10.4,12-42.4,3.6-50.8
		c-6.2-6.2-15.9-2-16.5,7.3c0,0-1.8-26.4-21.1-41c-6.9-5.2-11.6,10.7-11.6,10.7s-12.2-29.9-25.2-32.4c-9.8-1.9-6.9,11.7-6.9,11.7
		C1241,1308.4,1205.9,1295.4,1197.6,1313.8L1197.6,1313.8z"/>
	<path class="st58" d="M1346.4,1438.5c0.9,2,0,4.4-2,5.3c-2,0.9-4.4,0-5.3-2c0,0-8.6-19.7-25.3-43.8c-8.7-12.5-19.6-26.2-32.7-38.9
		c-8.9-8.6-18.7-16.8-29.6-23.9c-10.5-6.8-21.9-12.6-34.2-16.7c-0.5-0.1-0.7-0.6-0.6-1.1c0.1-0.5,0.6-0.7,1.1-0.6
		c12.6,3.7,24.4,9.2,35.3,15.8c11.3,6.8,21.6,14.8,31,23.3c13.8,12.5,25.3,26.1,34.7,38.5
		C1336.9,1418.5,1346.4,1438.5,1346.4,1438.5L1346.4,1438.5z"/>
	<path class="st67" d="M1304.3,1722.2c-14.3-40.4-39.5-135.3-45.2-199.4c-10.2-114.3,146.4-152.1,189.8-51.1
		c43.5,101,53.4,261.6,53.4,261.6S1422.5,1728.6,1304.3,1722.2L1304.3,1722.2z"/>
	<path class="st68" d="M1499.4,1700.2c2.1,20.4,2.9,33.1,2.9,33.1s-79.8-4.7-198-11.1c-14.3-40.4-39.5-135.3-45.2-199.4
		c-2.7-30,6.1-54.7,21.4-73.1c0,0-7.7,31.4,0,71.4c13.8,71.9,45.7,161.4,68.4,177.7C1373.7,1716.8,1460.2,1706.2,1499.4,1700.2
		L1499.4,1700.2z"/>
	<path class="st69" d="M1333.2,1469.2c2.9-18.1,53.1-37.5,73.1-3c15.9,27.6,50.7,140.9,28.2,148.4
		C1354,1641.3,1329.6,1492,1333.2,1469.2L1333.2,1469.2z"/>
	<path class="st70" d="M1269,1588.1c-0.7-3.6-1.4-7.2-2.1-10.8c18.8-2,62.2-7,77.9-12c2.9-0.9,6,0.7,6.9,3.6c0.9,2.9-0.7,6-3.6,6.9
		C1332.3,1580.8,1288.7,1586,1269,1588.1z M1269.7,1465.9c13-1.3,61.4-7,89.4-21c2.7-1.4,6-0.3,7.4,2.4c1.4,2.7,0.3,6-2.4,7.4
		c-33.9,17-96.6,22.5-96.6,22.5c-0.9,0.1-1.8-0.1-2.5-0.4C1266.2,1473,1267.9,1469.3,1269.7,1465.9L1269.7,1465.9z M1480.8,1578.4
		c-16.3,4.8-52.2,14.4-84.7,18c-3,0.3-5.7-1.8-6.1-4.9c-0.3-3,1.8-5.7,4.9-6.1c32.2-3.6,68-13.3,83.5-17.9
		C1479.3,1571.3,1480.1,1574.9,1480.8,1578.4z M1396.7,1727.2c0.9-1.6,2.7-2.6,4.6-2.7c37-0.5,62.7-9.2,62.7-9.2c2.9-1,6,0.6,7,3.4
		s-0.6,6-3.4,7c0,0-6.4,2.2-17.4,4.5C1435.2,1729.4,1417.2,1728.4,1396.7,1727.2L1396.7,1727.2z M1297.2,1700.3
		c34.9-1,58.9-9.1,58.9-9.1c2.9-1,6,0.6,7,3.4s-0.6,6-3.4,7c0,0-23.8,8.1-59,9.6C1299.5,1707.8,1298.4,1704.2,1297.2,1700.3
		L1297.2,1700.3z M1445.9,1638.1c2.9-1,6,0.6,7,3.4s-0.6,6-3.4,7c0,0-27.1,9.2-66.1,9.8c-3,0-5.5-2.4-5.6-5.4c0-3,2.4-5.5,5.4-5.6
		C1420.2,1646.8,1445.9,1638.1,1445.9,1638.1L1445.9,1638.1z M1314.8,1515.6c-3,0.3-5.7-1.9-6-4.9c-0.3-3,1.9-5.7,4.9-6
		c0,0,52.5-5.3,85.5-20.7c2.8-1.3,6-0.1,7.3,2.7c1.3,2.8,0.1,6-2.7,7.3C1369.4,1509.9,1314.8,1515.6,1314.8,1515.6L1314.8,1515.6z"
		/>
</g>
<g>
	<path class="st71" d="M1956.5,1481.1c-67.1,27.3-35.1,130.5,35.2,118.3c-6.4,53.7,61.7,89.4,105.5,37.4c-1,35.4,76.3,31,83.3-5.9
		c11.8,43.6,97.5,70.1,145-14.7c68.9,31.6,136.6-13.4,116.2-59.9c45.8,12.1,85.9-21.3,72.7-46.1c22.9,5,49-20.8,43.4-43.3
		c63.8,9,49.3-90.6,1.1-96.8c15.2-47.1-16.6-96.4-57.9-68.7c-2.9-47.2-49.7-63.1-86.1-46.7c-10.5-45.9-70-64.4-132.6-26.3
		c-32.4-48.8-114.5-9.9-127.9,25.8c-52.6-22.9-105,16.5-103,57.7c-40-11.3-84.7,25.1-72.4,70.9
		C1939,1391.2,1917.5,1446.6,1956.5,1481.1L1956.5,1481.1z"/>
	<path class="st72" d="M1991.7,1599.3c0,0,35.5-5.1,47.3-29.3c0,0,29.6,31.6,77.1,5.8c0,0,35,53.1,90.1,0c0,0,57.7,61.5,103.4-18.5
		c0,0,67,58.8,133.7,28.7c-11.1,32.9-64.1,54.8-117.8,30.1c-47.5,84.9-133.2,58.3-145,14.7c-7,36.8-84.3,41.2-83.3,5.9
		C2053.4,1688.7,1985.2,1653,1991.7,1599.3L1991.7,1599.3z"/>
	<path class="st73" d="M2499.2,1288.8c-22.8-30.7-82.6-16.3-82.6-16.3c-12.6-27.2-30.9-44.9-61.3-50.3s-68.6,24.2-68.6,24.2
		c-16-17-40.2-33.6-65.7-24.2c-25.5,9.4-51.1,50.3-51.1,50.3c-14.9-7.1-45.6-18.4-80.7-5.9c-35,12.5-32.7,58.5-32.7,58.5
		c-67.7-2.1-79.2,47.7-79.2,47.7c-4-41,37.2-71.4,74.2-61c-2-41.2,50.4-80.6,103-57.7c13.4-35.7,95.6-74.6,127.9-25.8
		c62.6-38,122.1-19.5,132.6,26.3C2448,1239.9,2489.5,1251.4,2499.2,1288.8L2499.2,1288.8z M2444.9,1383.3
		c10.5,26.8-17.3,64.6-43,71.6c-20.6,5.6-48.9-7.3-66.6,7.4c-25,21-19.5,72.3-60.5,76.9c-22.3,2.5-32.9-20.8-49.5-30.7
		c-31.9-19.1-82,0.2-83.2-55c-0.7-36.4,61.6-27.3,67.5-55.9c2.1-10-21.8-23.9-23.5-39.5c-4.3-37.6,56.4-42.3,80.9-35.1
		c8.7,2.6,19.2,9.4,28.4,9.4c-0.3-7.2-3.4-17.5,1.1-23.8c9.9-13.8,38.3-33.1,81.5-19.7C2428.9,1304.5,2440.1,1371.1,2444.9,1383.3
		L2444.9,1383.3z M2069.9,1410.8c32.7-4.5,36.3,11,32.1,19c-6.7,12.9-6.3,23.8-22.8,27.4c-8.5,1.9-17.5,3.2-26.1,1
		c-14.9-3.7-28.9-19.7-16.3-34C2045.7,1414.1,2058.7,1412.3,2069.9,1410.8L2069.9,1410.8z M2376.4,1474.8c0,0,3.9-0.2,4.8,0
		c8.8,1.6,20.4,9.5,13.6,19.6c-1,1.4-2.1,2.6-3.5,3.6c-5,3.9-12.1,3.7-18.2,3.2c-2.6-0.2-5.1-0.8-7.5-1.8
		c-7.8-3.3-11.3-11.8-4.8-18.5C2364.8,1476.7,2370.7,1474.8,2376.4,1474.8L2376.4,1474.8z M2461.8,1355.7c0,0,6.7-2.6,8.4-2.4
		c6.6,0.8,15.9,4.7,18.4,11.4c3.3,8.8-9.4,16.6-16.8,16.3c-6.1-0.3-14.9-4.4-16.1-11c-0.7-4,1.2-8.5,3.4-11.7
		C2459.7,1357.5,2460.7,1355.7,2461.8,1355.7L2461.8,1355.7z M2241.1,1281.3c0,0,1.5,3,2.2,3.5c4.3,2.7,5.1,9.8,1.5,13.4
		c-2.3,2.3-6,2.7-9.1,2.4c-3.7-0.4-7.5-1.6-10.2-4.3c-3.3-3.3-3.5-9,0.1-12.2C2229.7,1280.6,2236.2,1281.3,2241.1,1281.3
		L2241.1,1281.3z"/>
	<path class="st74" d="M2068.8,1586.2l70,107.5l101,126.3c0,0,3.2,165,38.3,190.2c35.1,25.2,169.1-3.9,191.8-38.6
		c22.8-34.7-51.4-174.7-51.4-174.7l64.8-147.9l21.3-105.5c-13,10-26.2,14.4-39.5,15.1l-16.5,73.4l-13.1-32.1
		c-8.2,8.9-17.4,16.1-28.5,20.3l8.5,42.4l-43,76.8l-9.5-113.2c-13.5-1.6-26-5.1-37.7-10.2c-4.6,8-9.9,16-16.8,24l4,54.3l-26.7-34.9
		c-11.8,6.8-24.2,10.9-37.1,12.2l26.7,47.9l-1.2,27.1L2180,1666l-13.3-66.3l-23.7-1.9l3.5,54.3l-55.8-66L2068.8,1586.2z"/>
	<path class="st75" d="M2169.7,1614.8l-25.6,0.5l-1.1-17.4l23.7,1.9L2169.7,1614.8L2169.7,1614.8z M2144.1,1615.3l7.7,56.5
		l-49.3-71.7l44,52.1L2144.1,1615.3L2144.1,1615.3z M2102.5,1600.1l-11.8,4.5v15.3l-21.9-33.7l21.9-0.1L2102.5,1600.1L2102.5,1600.1
		z M2500.8,1562.4c-13.7,5.8-31.5,7.6-31.5,7.6l-21.7,74.6c-4.1-12.3-12.7-33.6-12.7-33.6c-9.9,9.3-26.1,17.4-26.1,17.4l-1.6-8.2
		c11-4.2,20.2-11.4,28.5-20.3l13.1,32.1l16.5-73.4c13.4-0.7,26.6-5.1,39.5-15.1L2500.8,1562.4L2500.8,1562.4z M2363.8,1633.9
		c-15.1,0-36.3-5.5-36.3-5.5c-2.8,6.7-12.1,16.1-12.1,16.1c0.6,7.1,0,68.6,0,68.6l-13.2-32.6l10.5,13.8l-4-54.3
		c6.9-8,12.1-16,16.8-24c11.6,5,24.1,8.6,37.7,10.2L2363.8,1633.9z M2290.7,1665.5c-9.5,9.3-29.9,20.3-29.9,20.3l29.1,38.5l-15.1,43
		l-71.5-81.5l71.2,60.8l1.2-27.1l-26.7-47.9c12.9-1.2,25.3-5.4,37.1-12.2L2290.7,1665.5L2290.7,1665.5z"/>
	<path class="st76" d="M2346.3,1486.8c-0.2-0.4-0.1-0.8,0.2-1.1c0.4-0.2,0.8-0.1,1.1,0.2c3,4.2,8.7,7.9,15.7,10.1
		c8.2,2.6,18.1,3,27.5-0.4c7.6-2.7,14.8-8.1,20.6-17c3-4.6,5.7-10.1,7.8-16.8l1.4-4.6l4.2,2.3c0,0,5.7,3.2,13.5,5.6
		c6.3,1.9,14.1,3.4,21.5,2.1c9.9-1.8,19.1-8.5,23.6-25.2c0.1-0.4,0.5-0.7,0.9-0.6s0.7,0.5,0.6,0.9c-3.2,19.1-13.1,27.2-23.9,30.1
		c-8.3,2.2-17.2,1.3-24.5-0.4c-4.5-1.1-8.4-2.5-11.2-3.6c-2.1,5.7-4.5,10.6-7.3,14.7c-7.1,10.3-16.1,16-25.3,18.6
		c-8.9,2.5-18,1.9-25.8-0.4C2357.3,1498.3,2349.6,1492.7,2346.3,1486.8L2346.3,1486.8z M2036.9,1422c-0.2,0.7-0.8,1.1-1.5,1
		c-0.7-0.2-1.1-0.8-1-1.5c0,0,4.5-25.2,29.2-34c9.3-3.3,21.5-4.2,37.4-0.6c0.2-8,4.3-16.7,11.6-22.4c5.8-4.5,13.4-7.2,22.4-6.2
		c-0.3-5.9,0.3-11.7,1.8-17.3c3.8-13.5,13.1-25.1,27.1-30.9c10.5-4.3,23.8-5.5,39.6-1.1c14.4,4,30.9,12.7,49.4,27.6
		c0.6,0.4,0.7,1.2,0.3,1.8c-0.4,0.6-1.2,0.7-1.8,0.3c-29.2-19.2-52.4-24.9-69.8-22.6c-15.6,2.1-25.8,11.4-30.5,23.2
		c-3.2,8.1-3.8,17.4-1.5,26.2l3.4,13.1l-12.5-5.2c-8.3-3.6-15.4-2.5-20.5,1.1c-6.1,4.4-9.7,11.9-7.3,17.6l5.2,11.6l-12-4.3
		c-17.4-7.1-30.5-7.8-40.5-5.3C2043,1400,2036.9,1422,2036.9,1422L2036.9,1422z M2200.8,1485c-0.2,0.7-0.9,1.1-1.6,0.9
		c-0.7-0.2-1.1-0.9-0.9-1.6c0,0,2.2-10.3,9.8-19.1c4.4-5.1,10.7-9.6,19.2-11.6c7.8-1.8,17.4-1.4,29.5,3c-0.5-2.3-0.9-4.5-1.2-6.7
		c-0.6-5.1-0.7-10-0.1-14.5c1.9-14.5,9.3-25.7,19.7-31.1c8.1-4.2,18.1-5.3,29.1-1.3c10,3.7,20.9,11.5,31.8,24.6
		c0.5,0.5,0.5,1.3,0,1.8c-0.5,0.5-1.3,0.5-1.8,0c-11.7-10.7-22.6-16.5-32.2-18.7c-8.4-1.9-15.7-0.6-21.4,3
		c-7,4.5-10.9,12.9-11.9,23.2c-0.4,4.5-0.3,9.3,0.5,14.4c0.7,4.6,1.8,9.5,3.6,14.5l6.7,16.9l-15.6-9.2
		c-14.7-9.7-26.2-12.5-35.2-11.5C2208.3,1464.1,2200.8,1485,2200.8,1485L2200.8,1485z M2484.5,1330.8c0.3,0.2,0.4,0.7,0.2,1.1
		s-0.7,0.4-1.1,0.2c0,0-21.9-14.8-38.6-12.9c-7.3,0.9-13.4,5.4-15.8,16.7l-4.2,17.1l-2.5-17.4c-0.6-3.8-3.9-6.7-8.1-8.7
		c-5.7-2.8-13.3-3.6-20.1-1.4c-9,2.9-16.2,11.2-15.8,27.8l-6.5,1.4c0,0-8.5-23.1-24.5-31.5c-7.1-3.7-15.7-4.5-25.8,1
		c-0.4,0.2-0.8,0.1-1-0.3c-0.2-0.4-0.1-0.8,0.3-1c10.5-6.9,20.1-6.7,28.2-3.1c10.2,4.4,18.2,14.2,23.2,21.9
		c2.4-13.5,10.4-20.9,19.5-23.8c8.7-2.9,18.7-1.5,26,2.4c3.2,1.7,5.9,3.8,7.8,6.3c4.5-8.5,11.4-11.8,18.9-12.2
		c7.1-0.3,14.8,2.1,21.5,5.3C2476.5,1324.3,2484.5,1330.8,2484.5,1330.8L2484.5,1330.8z"/>
	<path class="st77" d="M1991.6,1600.1c5.1-1.5,15.7-5.3,24.8-12.6c6.8-5.4,12.4-13,13.7-23.7l3.7-19.2l9.6,17.1
		c5.2,8.3,17.5,15.2,32.2,16c5.8,0.3,11.9-0.5,18.4-2.5c5.6-1.8,11.6-4.4,17.5-8.5l10.2-7.4l4.1,11.9c1.2,4.2,5.7,10.7,12.7,15.7
		c5.5,4,12.3,7.2,20.6,7.6c12.4,0.6,27.2-4,44.3-18.9c0.7-0.7,1.9-0.8,2.6,0c0.7,0.7,0.8,1.9,0,2.6c-16.4,19.9-32.6,27.4-46.7,28.7
		c-16.5,1.6-30.2-5.7-39.3-13.6c-2.2-1.9-4.1-3.9-5.7-5.9c-4.8,2.9-9.5,5.1-14.2,6.6c-9.1,3-18,3.6-26.1,2.6
		c-14.8-1.8-27.2-8.8-35.3-17.2c-3,4.8-6.7,8.7-10.9,11.9c-13.3,10-30.2,12.6-36.4,13.2C1991.3,1603,1991.4,1601.5,1991.6,1600.1
		L1991.6,1600.1z"/>
</g>
<g>
	<path class="st78" d="M2538.2,1431.6c62.6-75.8,205.7-54,200.3,61.7c-5.4,115.7-52.3,281.9-169.3,377
		c-53.6,43.6-253.2,183.2-418.8,89.8c-117.4-66.2-81.1-225.6-10.8-259.8c89-43.3,169.7-39.4,242.6-88.3
		C2473.2,1551,2495.3,1483.7,2538.2,1431.6L2538.2,1431.6z"/>
	<path class="st79" d="M2074.8,1815.6c3.9-51.4,30.2-98.4,64.8-115.2c19.1-9.3,37.8-16.4,56.1-22.3c81.6,49.8,367.2,40.4,409.2,18.8
		c80.4-41.3,90.9-153.5,90.9-153.5c-7.6-3.4-13.9-26.8-12-38.5s-2.4-22.3-2.4-22.3s-2.2,6.5-16.8,17.3s-59.7,14-59.7,14
		c4.9-2.9,29.3-43.3,33.4-52.9c4.1-9.5-2.8-30-2.8-30c-36,0-67.9,51.6-67.9,51.6c-4.6-16.4,1.7-62.8,1.7-62.8
		c-8.7,4.5-20.6,6.3-26.9,7c64.5-70.1,201.4-46.7,196.1,66.5c-5.4,115.7-52.3,281.9-169.3,377c-22.8,18.5-72.1,54.5-134,82.5
		c-133.3-23.8-267.7-53.5-273.2-48.1C2156,1910.6,2111.6,1859.9,2074.8,1815.6L2074.8,1815.6z"/>
	<path class="st80" d="M2458.3,1587.7c33.8-28.5,75.4-81.4,77.4-82.6c19.5-11.4,46.8-10.3,53.2,15.3c7.9,31.5-26.3,100.7-80,124.1
		C2469,1662,2429.1,1612.4,2458.3,1587.7L2458.3,1587.7z M2408.7,1628.4c51.4,3.3,12.2,63.8-23.9,45.1
		C2365.3,1663.4,2380.4,1626.6,2408.7,1628.4z"/>
	<path class="st81" d="M2639.5,1427c0,0,7,21.8,2,34.6c-13.3,34.3-27.6,48.4-27.6,48.4s36.1-3.2,54.1-20c10-9.3,17.1-22.8,15.5-37.6
		c0,0,11,15.2,6.9,40.2c-4.1,25,13.3,38.3,17.5,42.3c0,0-1.7-14.4,5.5-30.9s14.8-28.6,3.1-41.5c0,0,25.9,14.9,26.6,59.6
		c0,0,28.1-71.1-32.4-111.8c0,0,14.2-41.4,46.9-41.6c36.3-13.1,7.7-49.8-21.4-41c-21.8,6.6-53.7,32.1-62.8,55
		c0,0-38.1-23.3-81.7-13.1c-33.1,7.7-27.7,40.5-58.1,47.5c0,0,27,8.2,38.6-7c11.6-15.1,30-14.1,30-14.1s-13.7,2.1-23.6,16.1
		c-9.6,13.5-8.7,44.1-11.4,61.6c0,0,24.8-34,35-41C2621.3,1419.8,2639.5,1427,2639.5,1427L2639.5,1427z"/>
	<path class="st82" d="M2567.6,1385.1c5.4-6.8,12.3-12.8,24.1-15.5c43.7-10.2,81.7,13.1,81.7,13.1c9.2-22.8,41.1-48.4,62.8-55
		c14.6-4.4,29,2.5,35.3,12.2c0,0-34.6-5-62.1,16.3c-12,9.3-33.8,35.7-33.8,35.7c-11.3-11.4-64.1-20-77.4-19.1
		c-13.3,0.9-31,12.7-31,12.7C2567.3,1385.4,2567.4,1385.3,2567.6,1385.1L2567.6,1385.1z"/>
	<path class="st83" d="M2548,1410.3c0,0,12.4,5.8,19.2-0.2s15.7-22.3,45.6-18c0,0-23.5,11.1-36.2,23.2c0.6-1.2,1.2-2.2,1.9-3.2
		c9.9-14,23.6-16.1,23.6-16.1s-18.4-1-30,14.1c-11.6,15.1-38.6,7-38.6,7C2539.6,1415.7,2544.2,1413.3,2548,1410.3L2548,1410.3z
		 M2598.7,1435.6c6.8-12.4,30.8-18,45-14c0,0,7.7,19.3,5.1,36.1c-2.2,14-6.6,33.1-18.2,49.4c-9.5,2.2-16.6,2.8-16.6,2.8
		s14.4-14.1,27.6-48.4c4.9-12.8-2-34.6-2-34.6s-18.2-7.1-37.2,5.7C2601.2,1433.4,2600,1434.4,2598.7,1435.6L2598.7,1435.6z
		 M2683.7,1452.5c-1.5-10.5-3.4-22.2-5.1-25.3c0,0,13.1,16.6,15.5,28c2.4,11.4,5.9,13.8,3.3,27.2c-2.3,11.7,3.1,34.3,10.5,45.3
		c-0.2,4.4,0.1,7.2,0.1,7.2c-4.2-4-21.6-17.3-17.5-42.3C2694.3,1469.2,2685,1454.4,2683.7,1452.5L2683.7,1452.5z M2716.5,1462.5
		c-12-10-5.1-12.6-8.7-23.2c0,0,3.9,11.1,8.7,18.4c4.7,7.3,26.6,15.7,30.4,51.1c-1.8,8.2-3.8,13.3-3.8,13.3
		C2742.4,1477.3,2716.5,1462.5,2716.5,1462.5L2716.5,1462.5z M2736.9,1436.8c-8.2-9.6-23.4-19-34.5-28c7.3-11,30.7-31.9,30.7-31.9
		s0,0.2,0.1,0.6c-15.5,12.2-22.6,32.7-22.6,32.7C2722.6,1418.2,2731,1427.3,2736.9,1436.8L2736.9,1436.8z"/>
</g>
<g>
	<path class="st84" d="M1796.3,1523c88-98.5,193.7-77.4,235.7,17.8c37.4,84.7-18.5,167.5-98.2,214.6
		c-79.7,47.1-175.6,53.5-235.4-17.2C1630.3,1657.7,1665.8,1545.7,1796.3,1523z"/>
	<path class="st85" d="M1857.8,1607.3c8,48.2,1,164.3,76.1,148.2c-48.8,28.9-103.8,42.5-152.8,32.4c-34.1-11.8-65.1-28.9-82.6-49.5
		c-2-2.3-3.9-4.7-5.7-7.1c-1.1-1.4-2.3-3-3.5-4.8c-38.1-54.5-32-120,15.9-162.6c-1.3,2.3,85.5-39.8,91-40.8
		c17-19,34.6-33.5,52.3-43.9c6.5,1.2,10.9,3,10.9,3c-21.8,10.3-26.6,21.6-26.6,21.6c41.9-0.7,46.2,29.5,46.2,29.5
		c-25.2-9.6-42.4-1.5-42.4-1.5C1859,1553.4,1858.5,1594.4,1857.8,1607.3L1857.8,1607.3z"/>
	<path class="st86" d="M1798.5,1549.1c14.8,0.4,36,7,58.8,46.9c0,0-0.4-60.7-34-67.1c0,0,30.8-9.2,56,0.4c0,0-19.8-37.3-53.2-20.5
		c0,0-0.3-12.8,33.6-30.7c0,0-44.6-5.4-61.4,33.5c0,0-20.8-18.7-7.5-44.4c-0.7-11.7-14.7-20.6-31.9,1.2c0,0-8.6,29.5,16.5,56.6
		c0,0-51.5-7.7-67.7,37.5c0,0,26.5-12.5,38.2-12.4c-16.6,12.5-25.4,31-17.1,48.1c8.5,17.5,26.8,25.6,26.2,36.4c0,0,10.1-13,1.6-27.8
		c-8.5-14.8,4.1-39.5,14.4-47.2c0,0,18.5,16.9,17,28.7C1788.2,1588.4,1806.6,1563.7,1798.5,1549.1L1798.5,1549.1z"/>
	<path class="st87" d="M1709.5,1558.6c0,0,27.6-16,47-15c0,0-23.6,17-29.1,31.1c2.9-9.1,9.6-17.6,18.7-24.4
		c-11.7-0.1-38.2,12.4-38.2,12.4C1708.4,1561.2,1708.9,1559.9,1709.5,1558.6L1709.5,1558.6z M1738.4,1611.7
		c4.2,1.7,15.2,5.8,19,19.5c-1.1,2.3-2.1,3.6-2.1,3.6C1755.6,1627.1,1746.7,1620.9,1738.4,1611.7z M1754.1,1595
		c-2.2-6.2,2-23.4,6.2-29.4c4.3-6.1,6.7-11.6,9.7-16.2c0,0,20,18.6,20.5,35.7c-1.3,2.1-2.3,3.3-2.3,3.3c1.5-11.7-17-28.7-17-28.7
		C1763.4,1565.6,1754.2,1581.3,1754.1,1595L1754.1,1595z M1798.5,1549.1l-5.6-5.2c0,0,18.4-2.8,29.6,5.1c11.1,7.9,30.7,32,34.9,46.9
		C1834.6,1556.1,1813.4,1549.5,1798.5,1549.1z M1842.4,1541.5l-19-12.6C1831.5,1530.4,1837.7,1535.2,1842.4,1541.5z M1823.3,1528.9
		c0,0-5.8-1.3-13.9,0.4c0,0,17.9-7.2,28.4-6.8c2.9,0.1,7,1.1,11.4,2.5C1834.7,1525.5,1823.3,1528.9,1823.3,1528.9z M1845.2,1504.6
		c0,0-19.9,4.8-29.2,12.8c0,0,2.3-16.1,12.1-24.3c5.6-4.7,18.6-10.1,29.3-13.6c-31.5,17.2-31.2,29.4-31.2,29.4
		C1833.1,1505.3,1839.5,1504.2,1845.2,1504.6z M1801.3,1505.8c-1.2,4.6-1.1,13-1.1,13c-5.2-3.8-16.9-15.2-19.4-29.8
		c-2.5-14.6,8.4-23.4,9.6-24.8c0.3,1,0.5,2.1,0.5,3.1c-13.3,25.6,7.5,44.4,7.5,44.4C1799.2,1509.6,1800.2,1507.6,1801.3,1505.8
		L1801.3,1505.8z M1765.7,1511.8c0,0,8.7,12.4,16.6,16.3c0,0-10.4-3.2-17.1-3.4c6.2-0.1,10.3,0.5,10.3,0.5
		C1771.4,1520.7,1768.2,1516.2,1765.7,1511.8z"/>
	<path class="st88" d="M1909.1,1581c-28.1-25.7-6.6-101.7,37.7-91.5c57.5,13.3,82.6,72.1,77.9,104.9c-6,42.3-57,101.9-77.9,55.8
		C1931.6,1616.9,1933,1602.9,1909.1,1581z"/>
</g>
<g>
	<path class="st89" d="M1592.9,1513.9c138-62.9,239.3,8.2,239.6,127.6c0.2,106.3-96.8,167.5-202.4,180.2
		c-105.5,12.8-209.3-24.9-239.5-126.8C1356.2,1578.7,1445.2,1477.5,1592.9,1513.9z"/>
	<path class="st90" d="M1387.9,1684.9c-9.1-38.2-4.8-74.5,10.6-104.1c0,0,0.9,38.4,20.5,82.5c0,0,31.2,47.4,72.1,50
		c40.8,2.5,233,12.4,272.1,0c23.9-7.6,53.4-21.8,64.4-31.8c-8.5,33.4-27.8,61.1-53.8,82.9c-37.7,31.6-89.6,50.9-143.8,57.4
		c-105.5,12.8-209.3-24.9-239.5-126.8C1389.6,1691.6,1388.7,1688.2,1387.9,1684.9z M1478.3,1514.7c24.2-7.8,52.4-10.5,83.8-6.6
		c3.7,1.4,5.8,2.4,5.8,2.4c-0.2-0.6-0.4-1.1-0.6-1.6c8.3,1.2,16.8,2.9,25.5,5c26.6-12.1,51.8-19.3,75.2-22.1c6.3,4.3,10,8.2,10,8.2
		c-27.7,0.8-38,10.5-38,10.5c44.4,18.6,34.9,52.4,34.9,52.4c-22.1-21.7-43.9-21.2-43.9-21.2c16.2,39.5-14.9,93.2-14.9,93.2
		c-5.4-52.5-15.7-76.8-31.1-84.2c1.7,19.1-33.2,32.1-33.2,32.1c7-11.6-5.2-32.1-5.2-32.1c-14.4,3.3-31.8,20.2-29.7,39.7
		c2.1,19.5-21.2,25.9-21.2,25.9c8.3-19.2-9.9-28.1-10.7-50.4c-0.8-21.8,2-38.4,25.3-43.8c-12.3-5.5-40.4,0-40.4,0
		C1472.8,1519.3,1475.5,1516.9,1478.3,1514.7L1478.3,1514.7z"/>
	<path class="st91" d="M1583.2,1542.3c15.4,7.3,34.7,24,40.1,76.4c0,0,27.6-64-4.7-86.2c0,0,36.6,4.6,58.7,26.3
		c0,0-3.6-48.4-46.5-46.1c0,0,5.6-13.6,49.5-16.7c0,0-44.4-26.3-80,6.8c0,0-13.2-29.3,12.7-50.1c4.6-12.6-6-28.4-34.1-13.4
		c0,0-22.6,27.1-8.8,67.1c0,0-50.6-31.8-88.4,8.2c0,0,33.6-0.9,45.9,4.6c-23.3,5.4-41,20.8-40.2,42.6c0.9,22.3,16.4,39.3,10.7,50.4
		c0,0,16.6-9,14.6-28.5c-2.1-19.5,22.5-39.7,36.9-43c0,0,11.6,26.4,4.6,38C1554.2,1578.8,1584.9,1561.4,1583.2,1542.3L1583.2,1542.3
		z"/>
	<path class="st86" d="M1485.2,1511.1c0,0,36.4-4,56.4,5.9c0,0-32.6,7-45,19.3c7.3-8.2,18.3-14.1,30.9-17
		c-12.3-5.5-45.9-4.6-45.9-4.6C1482.8,1513.4,1484,1512.2,1485.2,1511.1L1485.2,1511.1z M1491,1580.3c3.6,3.7,13.3,13.1,11,29.3
		c-2.2,1.9-3.9,2.8-3.9,2.8C1502,1604.5,1495.5,1593.8,1491,1580.3z M1515.2,1570c0.6-7.5,12.9-23.7,20.2-28.1
		c7.3-4.4,12.5-9.1,17.6-12.6c0,0,12.4,28.8,5.1,47c-2.4,1.6-3.9,2.5-3.9,2.5c7-11.6-4.6-38-4.6-38
		C1538.6,1543.4,1521.8,1555.7,1515.2,1570L1515.2,1570z M1583.2,1542.3l-3.5-8c0,0,20.7,5.6,28.7,19c8.1,13.4,17.5,47.8,15,65.4
		C1617.9,1566.3,1598.6,1549.6,1583.2,1542.3L1583.2,1542.3z M1632.8,1554.5l-14.2-22C1626.4,1537.9,1630.7,1545.8,1632.8,1554.5z
		 M1618.6,1532.5c0,0-5.5-4-14.8-6c0,0,22.1,0.7,32.9,6c3,1.5,6.9,4.4,10.9,7.9C1632.1,1534.2,1618.6,1532.5,1618.6,1532.5z
		 M1652.8,1517.1c0,0-23.1-4.1-36.6,0c0,0,9.9-15.9,23.9-20c8.1-2.4,24.2-2.1,37.1-0.8c-41.1,3.6-46.4,16.5-46.4,16.5
		C1639.8,1512.3,1647,1514,1652.8,1517.1z M1606.1,1498c-3.5,4.3-7.1,13.1-7.1,13.1c-3.7-6.4-10.7-23.8-6.6-40.3
		c4.1-16.5,19.7-20.7,21.5-21.7c-0.2,1.2-0.5,2.4-0.9,3.6c-25.8,20.8-12.7,50.1-12.7,50.1C1602.2,1501.1,1604.1,1499.5,1606.1,1498z
		 M1565.9,1488c0,0,3.4,17,9.9,24.8c0,0-9.5-8.1-16.4-11.5c6.6,2.7,10.6,5.3,10.6,5.3C1567.8,1500,1566.5,1493.7,1565.9,1488
		L1565.9,1488z"/>
	<path class="st92" d="M1695.2,1602.3c-19.4-25.7,9.3-71.2,44.5-55.8c45.6,20,63.4,72.5,54.4,111.8c-8,35.2-45.9,26.4-59.7,7.2
		c-13.3-18.5-19.3-32.1-28.1-46.8C1703.1,1613.5,1699.6,1608.1,1695.2,1602.3L1695.2,1602.3z"/>
</g>
<g>
	<path class="st93" d="M1596.1,2504.5l-39.2,105.9h950.1l-39.2-105.9C2165.8,2561.5,1875.7,2559,1596.1,2504.5L1596.1,2504.5z"/>
	<path class="st94" d="M2485.9,2553.4l-0.4,2.4c-303.1,71.5-908.4,0-908.4,0l19-51.3c279.7,54.5,569.7,57,871.7,0L2485.9,2553.4z"/>
	<path class="st95" d="M1014.6,1696c0,0,45.6,500.1,467.1,769.9c190.7,122,909.7,122,1100.3,0c403.6-258.3,467.1-769.9,467.1-769.9
		C2267.6,1786.1,1613.5,1765.1,1014.6,1696L1014.6,1696z"/>
	<path class="st96" d="M1306.5,2321.3c0,0,251.9,104,557.8,111.9c270.3,7,534.9-32.1,671.6-215.4
		c126.9-170.2,200.4-379.5,233.9-493.8c91.3-7.8,184.4-17.1,279.4-28c0,0-63.6,511.6-467.1,769.9c-190.7,122-909.7,122-1100.3,0
		C1414.1,2422.6,1356.2,2373.4,1306.5,2321.3L1306.5,2321.3z"/>
	<path class="st97" d="M1187.7,1804.5c25.8,161.8,136.5,359.2,275.1,444.4c91.2,56.1,555.6,109.4,702,31.6
		c177-94.1,223.3-355,229.4-436.5C2394.2,1843.9,1649.6,1889.2,1187.7,1804.5L1187.7,1804.5z"/>
	<path class="st98" d="M1041.7,1834.4c483.2,63,957.4,80.6,1422.7,53.6c186.3-10.8,371.1-28.7,554.5-53.8
		c-3.6,12.7-7.6,26.1-11.9,40c-178.8,24-358.9,41.2-540.4,51.7c-462.4,26.8-933.6,9.8-1413.6-51.8
		C1048.8,1860.3,1045.1,1847,1041.7,1834.4L1041.7,1834.4z"/>
	<path class="st99" d="M3004.9,1676.4c28.8,6.2,44.3,12.8,44.3,19.6c0,37-455.8,67-1017.3,67c-561.5,0-1017.3-30-1017.3-67
		c0-6.8,16.4-13.4,45.2-19.6l7.8,19.6c0,0,6.9,0,8.5,0c138.5,26,514.3,44.4,955.8,44.4c441.4,0,817.3-18.4,955.8-44.4l-31.5-4.9
		c7.4-6.5,12.9-13.4,16.9-20.6L3004.9,1676.4L3004.9,1676.4z"/>
</g>
<g>
	<path class="st100" d="M2764.9,2267.3c0,0-67.5,122.6-86.4,172.7l-101.9,43.8c-35,7.5,40.2,153.5,66.6,123.8l97.1-53.3l186.8-26.5
		l-13.2-38.7l-162.3,2.1l96.6-66.5l-18.6-38l-97.3,44.2l54-153.4L2764.9,2267.3L2764.9,2267.3z"/>
	<path class="st101" d="M2567.9,2505.3c28.2-1.6,58.3-7.4,81.1-23.1c11.7-8,18.5-20.6,28.8-30.1c5.1-4.7,11.2-8.4,16.9-12.4
		c5.5-3.9,10.6-8.1,13.9-14.2c4.6-8.2,6-17.6,6.8-27.1c0.9-9.8,1.2-19.8,3.5-29c4.5-17.6,16.8-32.2,22.4-49.5c0.3-0.8,1.1-1.2,1.9-1
		c0.8,0.3,1.2,1.1,1,1.9c-5.5,17.3-17.9,31.8-22.3,49.4c-2.3,9-2.6,18.9-3.4,28.5c-0.9,9.9-2.4,19.7-7.2,28.3
		c-3.6,6.5-9,11.1-14.8,15.2c-5.6,4-11.6,7.6-16.6,12.2c-10.4,9.5-17.3,22.3-29.1,30.3c-23.3,16-53.8,22-82.5,23.6
		C2568.1,2507.3,2568,2506.3,2567.9,2505.3L2567.9,2505.3z M2573.4,2528.3c5.5,0,11.1-0.2,16.6-0.9c20.8-2.9,42-11,60.8-20.3
		c9-4.5,19.1-7.9,26.9-14.4c3.8-3.2,6.4-7.5,8.9-11.9c2.7-4.6,5.4-9.3,9.4-13c5.3-4.8,11.6-8.7,17.7-12.7c5.9-3.9,11.7-8,16.1-13.3
		c3.2-3.9,5.4-8.4,7.4-13.1l4-1.8c-2.4,6-4.9,11.8-9,16.8c-4.6,5.6-10.6,9.9-16.7,13.9c-6,3.9-12.2,7.7-17.3,12.4
		c-3.8,3.5-6.3,7.9-8.9,12.3c-2.7,4.6-5.5,9.2-9.6,12.7c-8,6.7-18.3,10.2-27.5,14.8c-19,9.5-40.6,17.7-61.7,20.6
		c-5.3,0.7-10.6,0.9-15.9,1C2574,2530.3,2573.7,2529.3,2573.4,2528.3z M2658.9,2448.5c-4.3,5.9-8.8,11.8-14,16.8
		c-12.3,11.9-34.2,21.3-51.2,21.8c-7.1,0.2-14.5,0.5-21.6-1c1.3-1.1,2.8-1.9,4.6-2.3l0,0c5.6,0.7,11.3,0.4,16.9,0.2
		c16.3-0.5,37.4-9.5,49.2-20.9c3.9-3.7,7.4-7.9,10.7-12.3L2658.9,2448.5L2658.9,2448.5z M2581.7,2549c6.8-3.2,14.3-5,21.8-5.6
		c9.7-0.8,19.9,0.1,29.2-3.3c7.8-2.8,14.3-7,21.4-11.3c6.3-3.8,13-6.8,19.4-10.5c7.6-4.4,14.4-10,21.9-14.7
		c10.4-6.4,22.6-9.6,32.5-17c16.8-12.5,22.2-30,27-49.7c1.5-6.2,2.8-12.5,4.8-18.6l3.7-1.7c-0.2,0.5-0.3,1-0.5,1.5
		c-2.2,6.4-3.6,12.9-5.1,19.5c-4.9,20.4-10.7,38.5-28.1,51.4c-10,7.4-22.3,10.6-32.8,17.1c-7.5,4.6-14.3,10.3-21.9,14.7
		c-6.3,3.7-13.1,6.6-19.3,10.5c-7.2,4.4-13.9,8.7-21.9,11.6c-9.5,3.5-20,2.7-30,3.5c-7.2,0.6-14.3,2.2-20.8,5.3
		C2582.5,2550.8,2582.1,2549.9,2581.7,2549L2581.7,2549z M2595.1,2574c21.7-0.7,44.3-5.7,63.4-16c13.1-7.1,24.4-17.3,37.2-24.9
		c14.8-8.8,31.4-14.6,45.5-24.5c7.6-5.3,13.8-12.1,21.2-17.5l5.4-0.1c-1.1,0.7-2.3,1.5-3.3,2.3c-7.6,5.5-13.9,12.4-21.5,17.8
		c-14.2,9.9-30.8,15.8-45.7,24.6c-12.9,7.6-24.2,17.9-37.4,25c-19,10.2-41.4,15.4-63,16.3C2596.4,2575.9,2595.8,2575,2595.1,2574
		L2595.1,2574z M2772.4,2476.9c-0.3-0.3-0.6-0.7-0.6-1.1c-0.4-9.4-0.5-18.7,1.1-28c2.2-12.9,6.6-25.6,7.3-38.7l3.1-1.4
		c-0.4,13.8-5.1,27-7.4,40.6c-1.5,9-1.4,17.9-1.1,27L2772.4,2476.9L2772.4,2476.9z M2615.3,2600.4c1.2-0.7,2.5-1.3,3.9-1.9
		c4.5-1.9,9.5-3.3,13.2-5.1c19-8.9,39.2-15.1,57.9-24.6c24.8-12.6,50-30,72-47c14.3-11,27.8-23.7,44.2-31.4l8.1-0.1
		c-19.5,6.9-34.4,21.5-50.5,33.9c-22.2,17.1-47.5,34.6-72.5,47.3c-18.7,9.5-39,15.7-58,24.6c-3.1,1.5-7.1,2.7-11,4.2
		c-1.7,0.7-3.5,1.4-5,2.2C2616.8,2601.8,2616.1,2601.1,2615.3,2600.4L2615.3,2600.4z M2801.6,2545.6c1.8-4.5,3.7-9,5.3-13.6
		c2.6-7.7,4.3-16,10.3-22c7.3-7.3,16-13.1,24.3-19.1c0.4-0.3,0.9-0.6,1.5-1l5.7-0.1c-2,1.3-4.1,2.5-5.5,3.5
		c-8.2,5.9-16.8,11.6-24,18.8c-5.7,5.7-7.1,13.5-9.5,20.8c-1.4,4.1-3.1,8.1-4.7,12.1L2801.6,2545.6L2801.6,2545.6z"/>
	<path class="st101" d="M2848.8,2489.9l65.2-0.8l13.2,38.7l-186.8,26.5l-97.1,53.3c-8.7,9.8-22.8,0.4-36.5-16.9
		c24.6-10.6,124.6-46.5,132.6-48.5c5.6-1.4,55-2.3,84.8-14.4c18.5-7.5,22.8-25.7,24.6-31.8
		C2849.6,2493.5,2849.5,2491.5,2848.8,2489.9L2848.8,2489.9z M2745.7,2302.9c5-9.4,9.4-17.5,12.7-23.6c4-1,7.6-1.7,9.5-1.6
		c5.9,0.2,11.9,0.4,18.1,0.9l-53.6,152.2l97.3-44.2l18.6,38l-96.6,66.5c0,0,43.2-36.1,42.1-42.1c-2.8-15.4-18.4-26.9-22.8-26
		c-11.6,2.2-48.2,19-48.2,19s11-41,15-54.2c4.5-15.2-0.8-30.3,2.3-45.4c2.2-10.7,11.6-17.9,9.5-29.7
		C2748.9,2308.9,2747.5,2305.8,2745.7,2302.9L2745.7,2302.9z"/>
	<path class="st102" d="M2872.2,2463.4c-31.4,18.1-82.5-12.5-78.3-60.5c-47.6-0.3-58.3-74.1-29-103.2c-53-22.7-49.4-124.2,26-131.9
		c25.1-52.9,94.6-35,103.1,0c45.1-31.4,113.1-33.5,130.4,51.7c60.1-22.2,117,53.1,78.4,110.8c34.7,12.2,31.9,60-3.5,78.5
		c37,7,38.5,114.7-2.1,114.6c22.1,42-17,91.4-69.4,64.5c-4.7,28.9-66.1,32.7-76.6-5.4c-27.9,12.6-72.8,0.4-91.1-43.3
		C2848.1,2510.5,2858.9,2481.7,2872.2,2463.4L2872.2,2463.4z"/>
	<path class="st103" d="M2742.3,2195c10.1-14.3,26.2-24.9,48.6-27.2c25.1-52.9,94.6-35,103.1,0c45.1-31.4,113.1-33.5,130.4,51.7
		c49.5-18.3,96.8,29.5,90.4,79.1c-0.8-2.8-1.6-5.5-2.6-8.3c-4-10.8-10.5-21-18.5-29.4c-10.5-11-23.3-20.6-38.3-23.9
		c-13.4-3-28-1.6-41.7-1.6c-4.5-16-10-30.9-19-45.1c-6.1-9.6-13-19-24.5-22.3c-18-5.2-48.2,2.1-64.6,10.7
		c-2.7,1.4-16.1,10.2-16.1,13.5c-13.6-35.6-46.2-51.9-81-33.4c-4.4,2.3-9,5.3-11.7,9.7c-1.9,3-0.5,7.4-3.6,8.9
		C2777.4,2185.2,2759.4,2190,2742.3,2195L2742.3,2195z"/>
	<path class="st104" d="M3088.1,2583.7c-13.8,12.5-35.5,16.9-60.3,4.1c-4.7,28.9-66.1,32.7-76.6-5.4c-27.9,12.6-72.8,0.4-91.1-43.3
		c-12-28.6-1.2-57.5,12.1-75.7c-31.4,18.1-82.5-12.5-78.3-60.5c-47.6-0.3-58.3-74.1-29-103.2c-33.3-14.3-44.3-59.7-29.1-93.4
		c0.2,6.9,0.8,13.7,2.6,20.4c7,25.9,32.9,53.8,56.6,65.6c0.9,0.5,1.6,0.7,2.2,0.7c-1.9,11.8-9.1,23.8-10.7,35.6
		c-4.2,29.7,20.2,52.6,46.9,59.7c0,46.2,44.1,57.8,82.8,51.1c-2,1-32.3,93.3,42.5,88.4c5.3,47.2,45.8,27,69.1,11.3
		C3031,2579.3,3068.4,2584,3088.1,2583.7L3088.1,2583.7z M2797.2,2293.1c0.3-1.9,0.5-3.8,0.5-5.7
		C2799,2291.1,2799,2293.2,2797.2,2293.1z"/>
	<path class="st105" d="M2813.4,2207.8c-0.5,0.4-1.2,0.6-1.9,0.4c-1-0.3-1.6-1.5-1.2-2.5c0.2-0.7,0.8-1.3,1.8-1.7
		c1.1-0.5,3.2-0.6,3.7-0.7c2.3-0.3,4.7-0.4,7-0.3c2.4,0.1,4.7,0.5,7.1,1.1c7.9,2.1,14.8,6.2,20.2,11.6c4.2,4.3,7.5,9.5,9.7,15.4
		c0.8-0.2,1.6-0.4,2.4-0.5c3.8-0.7,8-0.8,10.7-0.9c5.3,0,10.7,0.9,15.8,2.8c7.3,2.7,14.1,7.1,19.6,12.8c9.1,9.3,14.9,21.8,14.4,34.7
		c0,1.1-0.9,2-1.9,2s-2-0.9-2-1.9c-0.7-11.4-7.1-21.6-15.8-29c-4.2-3.6-9.1-6.5-14.2-8.5c-5.1-2-10.4-3.1-15.7-2.9
		c-2.3,0-5.9,0.1-9.2,0.6c-1.7,0.3-3.3,0.5-4.4,1.2c-1.3,0.9-3,1.1-4.5,0.5c-1.5-0.6-2.6-1.9-2.9-3.5c-1.1-6.6-3.9-12.6-7.9-17.4
		c-4.2-5-9.6-9-16-11.4c-1.9-0.7-3.8-1.3-5.8-1.6c-2-0.3-4.1-0.5-6.2-0.5c-0.3,0-1.6-0.4-2.2-0.3c0-0.1,0.1-0.2,0.1-0.3
		c0,0.1-0.1,0.2-0.1,0.3C2813.5,2207.4,2813.4,2207.5,2813.4,2207.8C2813.4,2207.8,2813.4,2207.8,2813.4,2207.8L2813.4,2207.8z
		 M2813.8,2207.4c-0.1,0.3-0.3,0.6-0.4,0.4C2813.6,2207.7,2813.7,2207.5,2813.8,2207.4C2813.8,2207.4,2813.8,2207.4,2813.8,2207.4
		L2813.8,2207.4z M2923.8,2410c-1.1-0.1-1.9-1.1-1.7-2.2c0.1-1.1,1.1-1.9,2.2-1.7c10.9,0.4,20.3,6.6,27.3,15.1
		c4.1,5,7.2,10.8,9.2,16.8c0.8,2.3,1.4,4.6,1.9,6.9c2.2-0.1,4.5,0.3,6.8,1.1c7,2.6,14,9.8,16.9,19.1c3.1,9.7,2,21.8-8.1,32.5
		c-0.7,0.8-1.9,0.9-2.8,0.3s-0.9-1.9-0.3-2.8c7.1-9.7,6.9-19.5,3.6-27.1c-2.3-5.3-6.3-9.5-10.5-11.7c-2.6-1.4-5.3-2-7.5-0.8
		c-1.5,0.8-3.3,0.8-4.8,0c-1.5-0.8-2.4-2.4-2.5-4.1c-0.1-4.2-1-8.7-2.5-13.2c-1.4-4.3-3.3-8.5-5.8-12.4
		C2940.1,2417.9,2933,2411.6,2923.8,2410L2923.8,2410z M2993.6,2311.2c-1.1,0.2-2.1-0.4-2.3-1.5c-0.2-1.1,0.4-2.1,1.5-2.3
		c19.1-5,32.9,3,40.2,14.9c4.9,7.9,6.9,17.8,5.8,27.1c-0.4,3.8-1.4,7.4-3,10.8c9.2,1.8,15,7.1,17.1,14.1c1.9,6.3,0.7,14.3-4.6,22.9
		c3.5,2.3,6.4,5.4,8.8,9.2c4.4,6.9,6.8,15.9,6.7,24.7c-0.1,15-6.9,29.7-21.1,34.1c-1,0.4-2.1-0.2-2.5-1.2c-0.4-1,0.2-2.1,1.2-2.5
		c11.7-4.6,16.2-17.5,15.4-30.2c-0.4-6.1-2.1-12.2-4.9-17.2c-2.8-5.1-6.8-9.1-12-10.8c-1.4-0.5-2.4-1.6-2.9-3
		c-0.4-1.4-0.2-2.9,0.7-4.1c5.2-7.3,7.1-13.9,5.5-18.9c-1.6-5.3-7.1-8.1-15.3-8.1c-1.8,0-3.5-1-4.3-2.6c-0.8-1.6-0.6-3.6,0.5-5
		c7.9-9.6,8.4-24.5,2.5-35.5C3021.3,2315.4,3010.1,2308.2,2993.6,2311.2L2993.6,2311.2z M2814.9,2326.5c-1.1,0.2-2.1-0.6-2.2-1.7
		c-0.2-1.1,0.6-2.1,1.7-2.2c5.4-1.6,11.2-1.4,17.1,0.1c2.6,0.7,5.1,1.8,7.5,3.1c1,0.6,2,1.2,2.9,1.9c2.3,1.8,4.4,3.9,6.1,6.2
		c1.2,1.7,2.3,3.4,3.2,5.2c2.1,4.5,3.2,9.1,2.8,13.8c0.1,1.1-0.7,2-1.8,2.1c-1.1,0.1-2-0.7-2.1-1.8c-0.9-3.8-3.1-7-5.7-10
		c-1.5-1.7-3.2-3.2-5-4.7c-1.2-1-2.4-1.9-3.6-2.8c-1.5-1.1-3-2.3-4.6-3.3c-1.7-1-3.3-2.1-5-2.9
		C2822.4,2327.9,2818.7,2326.6,2814.9,2326.5L2814.9,2326.5z M2931.5,2200.1c-1.1,0.2-2.1-0.6-2.2-1.7c-0.2-1.1,0.6-2.1,1.7-2.2
		c5.2-1.6,10.4-2.3,15.6-1.9c2.6,0.2,5.1,0.8,7.5,1.5c1.1,0.3,2.1,0.8,3.1,1.3c2.5,1.3,4.8,2.9,6.8,4.9c1.8,1.8,3.4,3.8,4.7,6.2
		c1.7,3.2,3,6.6,3.7,10.6c0.4,1-0.2,2.1-1.2,2.5c-1,0.4-2.1-0.2-2.5-1.2c-1.5-2.8-3.5-5-5.5-7.1c-2-2.1-4.4-3.6-6.8-5
		c-1.4-0.8-2.9-1.6-4.4-2.3c-1.5-0.7-3-1.5-4.6-2.1c-2-0.8-3.9-1.5-6-2C2938.1,2200.8,2934.9,2200.2,2931.5,2200.1z"/>
</g>
<g>
	<path class="st89" d="M1155.9,2338.4c-113.6-78-215.4-30.4-234.5,76.4c-17,95.1,60.3,165.1,152.7,193.1
		c92.4,28.1,191.2,10.7,234.3-75.7C1357.5,2433.7,1293.7,2329.1,1155.9,2338.4L1155.9,2338.4z"/>
	<path class="st90" d="M954.5,2534c28.7,34.2,72.2,59.6,119.6,74c92.4,28.1,191.2,10.7,234.3-75.7c17.7-35.6,20.8-71.9,10.9-103.4
		c0,0-34.5,173.3-227,153.1C1049.8,2577.5,990.5,2551.5,954.5,2534L954.5,2534z"/>
	<path class="st86" d="M1160.1,2365.4c-14.9,4.1-34.8,16-47.9,62.1c0,0-14.6-61.6,17.8-76.4c0,0-33.5-1.7-56.7,14.3
		c0,0,10.9-42.7,48.9-33.9c0,0-2.8-13-41.6-22.8c0,0,43.9-16.5,70.5,18.7c0,0,12.4-30.7-7.4-53.4c0,0,14.5-16,36.6-0.1
		c0,0,16,27.8-2.7,61.5c0,0,50.3-20.5,77.8,21.3c0,0-29.9-6.1-41.8-3.1c20,8.5,33.4,25.1,29.2,44.5c-4.3,19.9-20.8,32.6-17.6,43.4
		c0,0-13.5-10.7-8.5-27.8c4.9-17.1-13.9-39-26.3-44.3c0,0-14.5,21.8-10.1,33.2C1180.2,2402.6,1155.5,2382.2,1160.1,2365.4
		L1160.1,2365.4z"/>
	<path class="st92" d="M1056.4,2387.3c21.4-19.9-3.2-51.1-37.1-42.8c-44,10.7-68.1,54.8-66.3,91.5c1.6,32.7,46.8,36.6,52.3,15.9
		C1017.7,2404.4,1038.3,2404.3,1056.4,2387.3z"/>
</g>
</svg>
